<svg id="Capa_1" enable-background="new 0 0 512 512" height="512" viewBox="0 0 512 512" width="512" xmlns="http://www.w3.org/2000/svg"><g><g><path d="m94.202 343.942c-15.712 0-28.449-12.737-28.449-28.449v-232.399h-27.304c-15.712 0-28.449-12.737-28.449-28.449s12.737-28.449 28.449-28.449h55.753c15.712 0 28.449 12.737 28.449 28.449v260.848c.001 15.712-12.736 28.449-28.449 28.449z" fill="#ffcd69"/><path d="m406.804 347.01c-47.228 0-87.759-35.232-94.278-81.953-.608-4.355-.917-8.813-.917-13.241 0-15.712 12.737-28.449 28.449-28.449s28.449 12.737 28.449 28.449c0 1.805.125 3.612.371 5.373 2.618 18.771 18.924 32.923 37.926 32.923 21.117 0 38.298-17.179 38.298-38.296s-17.181-38.296-38.298-38.296c-15.712 0-28.449-12.737-28.449-28.449s12.737-28.449 28.449-28.449c21.117 0 38.298-17.181 38.298-38.298s-17.181-38.297-38.298-38.297c-18.263 0-34.067 12.972-37.577 30.844-3.028 15.416-17.985 25.461-33.398 22.431-15.418-3.028-25.461-17.982-22.433-33.399 8.739-44.486 48.022-76.775 93.408-76.775 52.492 0 95.196 42.704 95.196 95.195 0 25.976-10.456 49.552-27.382 66.747 16.926 17.193 27.382 40.769 27.382 66.745 0 52.491-42.704 95.195-95.196 95.195z" fill="#80b6ff"/><path d="m177.757 488.872c-19.895-.446-22.608-1.351-25.279-2.241-9.4-3.134-16.432-10.253-19.286-19.531-4.44-14.431 3.463-25.938 6.438-30.269 2.613-3.805 50.053-65.92 91.386-124.979 11.998-17.143 19.736-32.43 23.018-45.466l.831-6.504c-.822-20.395-17.671-36.734-38.265-36.734-18.264 0-34.068 12.972-37.578 30.842-3.028 15.418-17.982 25.46-33.398 22.433-15.418-3.028-25.461-17.982-22.433-33.398 8.739-44.486 48.023-76.775 93.41-76.775 58.042-.614 105.248 54.464 93.171 111.714-4.74 20.437-15.552 42.814-32.138 66.512-28.156 40.229-48.727 68.275-63.301 87.723 23.562-.033 52.488-.253 79.713-.595.121-.001.245-.003.364-.003 15.547 0 28.243 12.502 28.439 28.092.199 15.711-12.378 28.606-28.089 28.803-9.666.122-18.652.225-27.008.31z" fill="#a0e5a5"/></g><g><path d="m512 118.323c0-58.005-47.19-105.195-105.196-105.195-50.152 0-93.562 35.684-103.221 84.848-1.98 10.077.084 20.322 5.811 28.848s14.43 14.312 24.506 16.291 20.32-.083 28.849-5.81c8.526-5.727 14.312-14.43 16.292-24.508 2.591-13.194 14.268-22.771 27.764-22.771 15.603 0 28.298 12.694 28.298 28.297s-12.694 28.297-28.298 28.297c-21.2 0-38.448 17.248-38.448 38.449s17.248 38.449 38.448 38.449c15.603 0 28.298 12.694 28.298 28.297s-12.694 28.296-28.298 28.296c-14.042 0-26.088-10.449-28.022-24.301-.182-1.311-.274-2.654-.274-3.995 0-21.201-17.248-38.449-38.449-38.449-9.77 0-18.695 3.669-25.485 9.693-3.94-9.939-9.484-19.397-16.553-28.02-20.248-24.696-49.516-38.794-80.45-38.794-.34 0-.684.002-1.024.005-33.796.018-64.504 16.253-83.895 41.883v-143.487c0-21.201-17.248-38.449-38.449-38.449h-55.755c-21.201-.001-38.449 17.247-38.449 38.449 0 21.2 17.248 38.448 38.449 38.448h17.305v222.4c0 21.201 17.248 38.449 38.448 38.449 21.201 0 38.449-17.248 38.449-38.449v-33.246c3.411 1.864 7.122 3.219 11.046 3.99 20.795 4.086 41.051-9.517 45.137-30.317 2.592-13.194 14.27-22.771 27.766-22.771 14.98 0 27.235 11.516 28.232 26.36l-.638 4.995c-3.066 11.733-10.254 25.73-21.369 41.613-32.062 45.811-68.024 93.754-83.381 114.225-5.233 6.978-7.385 9.849-8.055 10.824-3.368 4.902-13.616 19.819-7.754 38.873 3.816 12.403 13.177 21.908 25.684 26.077 4.241 1.413 8.256 2.304 28.214 2.751.077.002.153.003.23.003 5.418 0 9.87-4.331 9.992-9.775.124-5.522-4.251-10.099-9.773-10.222-18.385-.413-20.766-1.206-22.341-1.73-6.299-2.101-10.998-6.833-12.891-12.984-2.661-8.648 1.097-15.806 5.123-21.666.509-.736 3.781-5.099 7.57-10.149 15.415-20.551 51.516-68.678 83.767-114.759 12.693-18.138 20.943-34.542 24.521-48.759.355-1.971 1.126-7.355 1.125-9.347-1.048-25.98-22.244-46.331-48.257-46.331-23.03 0-42.961 16.366-47.391 38.915-1.96 9.981-11.68 16.507-21.658 14.548-4.836-.95-9.013-3.726-11.76-7.816-2.061-3.068-3.133-6.599-3.14-10.212v-.005c-.002-1.204.114-2.417.352-3.624 7.82-39.81 42.978-68.703 83.597-68.703.035 0 .07 0 .105-.001.288-.003.573-.004.86-.004 24.916 0 48.562 11.439 64.988 31.475 16.06 19.588 22.418 44.397 17.452 68.084-4.46 19.156-14.744 40.331-30.566 62.939-23.108 33.016-43.751 61.624-63.111 87.46-2.272 3.033-2.635 7.09-.938 10.478 1.696 3.384 5.156 5.52 8.941 5.52h.014c23.189-.032 52.283-.25 79.86-.596l.203-.002c10.042 0 18.314 8.172 18.44 18.219.062 4.927-1.798 9.583-5.238 13.11-3.441 3.528-8.049 5.505-12.977 5.567-9.658.121-18.637.225-26.985.311-5.522.057-9.954 4.579-9.896 10.102.056 5.488 4.521 9.898 9.997 9.897.034 0 .07 0 .104-.001 8.362-.086 17.357-.189 27.031-.31 10.27-.129 19.874-4.249 27.044-11.602 7.171-7.353 11.049-17.059 10.918-27.326-.262-20.936-17.506-37.967-38.439-37.967l-.49.004c-20.022.251-40.864.435-59.645.527 16.016-21.717 32.998-45.412 51.552-71.922 12.176-17.397 21.379-34.195 27.528-50.173 17.686 34.022 53.386 56.971 93.451 56.971 58.008-.002 105.198-47.193 105.198-105.197 0-24.585-8.436-47.953-23.932-66.746 15.496-18.794 23.932-42.162 23.932-66.746zm-399.349 197.17c0 10.173-8.276 18.449-18.449 18.449s-18.448-8.276-18.448-18.449v-232.4c0-5.522-4.478-10-10-10h-27.305c-10.173.001-18.449-8.275-18.449-18.447 0-10.173 8.276-18.449 18.449-18.449h55.753c10.173 0 18.449 8.276 18.449 18.449zm379.349-63.678c0 46.977-38.219 85.194-85.196 85.194-42.268 0-78.54-31.527-84.373-73.337-.545-3.898-.821-7.889-.821-11.858 0-10.173 8.276-18.449 18.449-18.449s18.449 8.276 18.449 18.449c0 2.26.156 4.531.466 6.755 3.305 23.683 23.867 41.541 47.83 41.541 26.632 0 48.298-21.665 48.298-48.296s-21.666-48.297-48.298-48.297c-10.173 0-18.448-8.276-18.448-18.449s8.275-18.449 18.448-18.449c26.632 0 48.298-21.666 48.298-48.297s-21.666-48.297-48.298-48.297c-23.03 0-42.96 16.367-47.389 38.916-.949 4.835-3.727 9.011-7.818 11.759-4.091 2.747-9.006 3.737-13.841 2.788-4.836-.95-9.012-3.726-11.76-7.817s-3.738-9.006-2.788-13.841c7.82-39.81 42.977-68.703 83.596-68.703 46.978 0 85.196 38.219 85.196 85.195 0 22.463-8.704 43.676-24.509 59.73-3.831 3.893-3.831 10.139.001 14.031 15.804 16.056 24.508 37.269 24.508 59.732z"/><circle cx="222.751" cy="488.872" r="10"/></g></g></svg>