<?xml version="1.0" encoding="iso-8859-1"?>
<!-- Uploaded to: SVG Repo, www.svgrepo.com, Generator: SVG Repo Mixer Tools -->
<svg version="1.1" id="Layer_1" xmlns="http://www.w3.org/2000/svg" xmlns:xlink="http://www.w3.org/1999/xlink" 
	 viewBox="0 0 504 504" xml:space="preserve">
<path style="fill:#EDC654;" d="M4,43.4v308c0,7.6,6.4,15.2,14,15.2l468-4c7.6,0,14-7.2,14-15.2v-302c0-8.8-7.2-14.8-16-14.8H18
	C10.4,30.2,4,35.4,4,43.4z"/>
<rect x="28" y="58.2" style="fill:#CDEEF9;" width="444" height="280"/>
<path style="fill:#3C8E51;" d="M200,124.2l-73.2,73.6L92,164.2L29.6,223c-0.4,0.4,0,111.6,0,111.6H476v-95.2l-75.6-75.6l-77.2,76.8
	L200,124.2z"/>
<path style="fill:#54B265;" d="M200,124.6l-73.2,73.6l138.4,135.6h157.6L200,124.6z"/>
<path style="fill:#E8BB85;" d="M92,164.6l-62.4,58.8c-0.4,0.4,0,111.2,0,111.2h237.6L92,164.6z"/>
<circle style="fill:#E9B526;" cx="316.4" cy="121" r="26.4"/>
<ellipse style="fill:#33A5D2;" cx="250" cy="361.4" rx="110" ry="110"/>
<path d="M486,370.2H364c-2.4,0-4-1.6-4-4s1.6-4,4-4h122c8.8,0,10-6.4,10-10.4V45.4c0-6.4-5.2-10.8-12-10.8H18c-8.8,0-10,4.4-10,8.8
	v308c0,6.8,3.6,11.2,10,11.2h118c2.4,0,4,1.6,4,4s-1.6,4-4,4H18c-10.8,0-18-7.6-18-19.2v-308c0-10.8,6.4-16.8,18-16.8h466
	c11.6,0,20,8,20,18.8v306.4C504,363,496.8,370.2,486,370.2z"/>
<path d="M140,342.2H28c-2.4,0-4-1.6-4-4v-280c0-2.4,1.6-4,4-4h388c2.4,0,4,1.6,4,4s-1.6,4-4,4H32v272h108c2.4,0,4,1.6,4,4
	S142.4,342.2,140,342.2z"/>
<path d="M472,342.2H360c-2.4,0-4-1.6-4-4s1.6-4,4-4h108v-272h-16c-2.4,0-4-1.6-4-4s1.6-4,4-4h20c2.4,0,4,1.6,4,4v280
	C476,340.6,474.4,342.2,472,342.2z"/>
<path d="M30,227.4c-1.2,0-2-0.4-2.8-1.2c-1.6-1.6-1.6-4,0-5.6l62-62c1.6-1.6,4-1.6,5.6,0s1.6,4,0,5.6l-62,62
	C32,227,31.2,227.4,30,227.4z"/>
<path d="M184,257c-1.2,0-2-0.4-2.8-1.2l-92-92c-1.6-1.6-1.6-4,0-5.6s4-1.6,5.6,0l92,92c1.6,1.6,1.6,4,0,5.6
	C186,256.6,185.2,257,184,257z"/>
<path d="M140,189.4c-1.2,0-2-0.4-2.8-1.2c-1.6-1.6-1.6-4,0-5.6l64-64c1.6-1.6,4-1.6,5.6,0s1.6,4,0,5.6l-64,64
	C142,189,141.2,189.4,140,189.4z"/>
<path d="M336,229.4c-1.2,0-2-0.4-2.8-1.2c-1.6-1.6-1.6-4,0-5.6l64.4-64.4c1.6-1.6,4-1.6,5.6,0s1.6,4,0,5.6l-64.4,64.4
	C338,229,337.2,229.4,336,229.4z"/>
<path d="M356.4,277.8c-1.2,0-2-0.4-2.8-1.2L201.2,124.2c-1.6-1.6-1.6-4,0-5.6s4-1.6,5.6,0L359.2,271c1.6,1.6,1.6,4,0,5.6
	C358.4,277.4,357.6,277.8,356.4,277.8z"/>
<path d="M470.4,238.6c-1.2,0-2-0.4-2.8-1.2l-70-73.6c-1.6-1.6-1.6-4,0-5.6s4-1.6,5.6,0l70,73.6c1.6,1.6,1.6,4,0,5.6
	C472.4,238.2,471.2,238.6,470.4,238.6z"/>
<path d="M316,149.8c-15.6,0-28-12.8-28-28s12.8-28,28-28c6,0,11.6,1.6,16.4,5.2c2,1.2,2.4,3.6,0.8,5.6c-1.2,2-3.6,2.4-5.6,0.8
	c-3.6-2.4-7.6-3.6-11.6-3.6c-11.2,0-20,9.2-20,20s9.2,20,20,20s20-9.2,20-20c0-2.4,1.6-4,4-4s4,1.6,4,4
	C344.4,137,331.6,149.8,316,149.8z"/>
<path d="M250,417.8c-2.4,0-4-1.6-4-4v-104c0-2.4,1.6-4,4-4s4,1.6,4,4v104C254,415.8,252.4,417.8,250,417.8z"/>
<path d="M305.2,365.4h-108c-2.4,0-4-1.6-4-4s1.6-4,4-4h108c2.4,0,4,1.6,4,4S307.6,365.4,305.2,365.4z"/>
<path d="M250,477.4c-64,0-116-52-116-116s52-116,116-116s116,52,116,116S314,477.4,250,477.4z M250,253.8c-59.6,0-108,48.4-108,108
	s48.4,108,108,108s108-48.4,108-108S309.6,253.8,250,253.8z"/>
</svg>