<svg id="Capa_1" enable-background="new 0 0 512.001 512.001" height="512" viewBox="0 0 512.001 512.001" width="512" xmlns="http://www.w3.org/2000/svg"><g><path d="m432.501 55.501v439c0 5.52-4.48 10-10 10h-333c-5.52 0-10-4.48-10-10v-439c0-5.52 4.48-10 10-10h333c5.52 0 10 4.48 10 10z" fill="#fad207"/><path d="m95.501 94.85v386.57c0 3.911 3.17 7.081 7.081 7.081h201.777c2.652 0 5.196-1.054 7.071-2.929l77.071-77.071v-319h-273.075l-1.686-12.171-13.79 9.202c-2.78 1.855-4.449 4.976-4.449 8.318z" fill="#faa515"/><path d="m402.501 85.501v309l-60 22-20 58h-203c-5.523 0-10-4.477-10-10v-379c0-5.523 4.477-10 10-10h273c5.522 0 10 4.477 10 10z" fill="#f5f5f5"/><path d="m402.501 394.501-80 80v-70c0-5.523 4.477-10 10-10z" fill="#e6e6e6"/><path d="m356.641 75.501v19.43c0 13.78-11.22 25-25 25h-151.281c-13.78 0-25-11.22-25-25v-19.43z" fill="#e6e6e6"/><path d="m155.36 45.501h201.28v30h-201.28z" fill="#faa515"/><path d="m341.639 45.48v49.447c0 5.523-4.477 10-10 10h-151.277c-5.523 0-10-4.477-10-10v-49.447l55.507.001c-.738-3.171-.989-6.529-.669-9.991 1.382-14.945 13.632-26.88 28.605-27.913 18.078-1.247 33.13 13.049 33.13 30.86 0 2.423-.279 4.782-.806 7.044z" fill="#50758d"/><path d="m179.391 205.597c-1.935 0-3.799-.748-5.198-2.094l-25.337-24.362c-2.986-2.871-3.079-7.619-.208-10.604s7.62-3.078 10.604-.208l19.689 18.933 30.877-35.051c2.737-3.107 7.477-3.409 10.586-.67 3.107 2.738 3.408 7.478.67 10.586l-36.056 40.929c-1.353 1.535-3.273 2.451-5.317 2.535-.103.004-.206.006-.31.006z" fill="#5ed297"/><path d="m351.501 185.132h-106c-4.143 0-7.5-3.357-7.5-7.5s3.357-7.5 7.5-7.5h106c4.143 0 7.5 3.357 7.5 7.5s-3.358 7.5-7.5 7.5z" fill="#50758d"/><path d="m179.391 293.828c-1.935 0-3.799-.748-5.198-2.094l-25.337-24.362c-2.986-2.871-3.079-7.619-.208-10.604 2.871-2.986 7.62-3.079 10.604-.208l19.701 18.943 30.929-34.971c2.743-3.103 7.483-3.394 10.587-.649 3.103 2.744 3.394 7.484.649 10.587l-36.109 40.827c-1.354 1.53-3.273 2.442-5.315 2.525-.101.004-.202.006-.303.006z" fill="#5ed297"/><g fill="#50758d"><path d="m351.501 273.001h-106c-4.143 0-7.5-3.357-7.5-7.5s3.357-7.5 7.5-7.5h106c4.143 0 7.5 3.357 7.5 7.5s-3.358 7.5-7.5 7.5z"/><path d="m351.501 364.132h-17.5c-4.143 0-7.5-3.357-7.5-7.5s3.357-7.5 7.5-7.5h17.5c4.143 0 7.5 3.357 7.5 7.5s-3.358 7.5-7.5 7.5z"/><path d="m299.001 364.132h-53.5c-4.143 0-7.5-3.357-7.5-7.5s3.357-7.5 7.5-7.5h53.5c4.143 0 7.5 3.357 7.5 7.5s-3.358 7.5-7.5 7.5z"/></g><path d="m206.501 387.132h-46c-4.143 0-7.5-3.357-7.5-7.5v-46c0-4.143 3.357-7.5 7.5-7.5h46c4.143 0 7.5 3.357 7.5 7.5v46c0 4.143-3.358 7.5-7.5 7.5zm-38.5-15h31v-31h-31z" fill="#fd646f"/></g><g><path d="m174.193 203.503c2.936 2.941 8.146 2.723 10.826-.448l36.056-40.929c2.738-3.108 2.438-7.848-.67-10.586-3.109-2.739-7.849-2.438-10.586.67l-30.877 35.051-19.689-18.933c-2.984-2.87-7.733-2.777-10.604.208s-2.778 7.733.208 10.604z"/><path d="m245.501 185.132h106c4.143 0 7.5-3.357 7.5-7.5s-3.357-7.5-7.5-7.5h-106c-4.143 0-7.5 3.357-7.5 7.5s3.357 7.5 7.5 7.5z"/><path d="m148.856 267.372 25.337 24.362c2.932 2.937 8.134 2.723 10.816-.438l36.109-40.827c2.744-3.103 2.453-7.843-.649-10.587-3.104-2.744-7.844-2.453-10.587.649l-30.929 34.971-19.701-18.943c-2.984-2.871-7.733-2.778-10.604.208s-2.778 7.734.208 10.605z"/><path d="m245.501 273.001h106c4.143 0 7.5-3.357 7.5-7.5s-3.357-7.5-7.5-7.5h-106c-4.143 0-7.5 3.357-7.5 7.5s3.357 7.5 7.5 7.5z"/><path d="m351.501 349.132h-17.5c-4.143 0-7.5 3.357-7.5 7.5s3.357 7.5 7.5 7.5h17.5c4.143 0 7.5-3.357 7.5-7.5s-3.358-7.5-7.5-7.5z"/><path d="m245.501 364.132h53.5c4.143 0 7.5-3.357 7.5-7.5s-3.357-7.5-7.5-7.5h-53.5c-4.143 0-7.5 3.357-7.5 7.5s3.357 7.5 7.5 7.5z"/><path d="m160.501 387.132h46c4.143 0 7.5-3.357 7.5-7.5v-46c0-4.143-3.357-7.5-7.5-7.5h-46c-4.143 0-7.5 3.357-7.5 7.5v46c0 4.143 3.357 7.5 7.5 7.5zm7.5-46h31v31h-31z"/><path d="m432.501 242.501c4.143 0 7.5-3.357 7.5-7.5v-179.5c0-9.649-7.851-17.5-17.5-17.5l-128.066-.02c-.125-10.451-4.561-20.505-12.212-27.646-7.87-7.348-18.139-10.983-28.932-10.24-19.657 1.285-35.642 18.192-35.724 37.886l-128.066.02c-9.649 0-17.5 7.851-17.5 17.5v439c0 9.649 7.851 17.5 17.5 17.5h333c9.649 0 17.5-7.851 17.5-17.5v-224.5c0-4.143-3.357-7.5-7.5-7.5s-7.5 3.357-7.5 7.5v224.5c0 1.379-1.121 2.5-2.5 2.5h-333c-1.379 0-2.5-1.121-2.5-2.5v-439c0-1.379 1.121-2.5 2.5-2.5h73.361v15h-53.361c-4.143 0-7.5 3.357-7.5 7.5v399c0 4.143 3.357 7.5 7.5 7.5h33.5c4.143 0 7.5-3.357 7.5-7.5s-3.357-7.5-7.5-7.5h-26v-384h45.861v16.926c0 6.893 5.607 12.5 12.5 12.5h101.27c4.143 0 7.5-3.357 7.5-7.5s-3.357-7.5-7.5-7.5h-98.77v-44.426h48.008c4.783.059 8.427-4.592 7.305-9.222-3.45-13.625 7.084-27.947 21.148-28.72 15.295-1.514 28.385 13.896 24.504 28.723-1.177 4.535 2.621 9.318 7.305 9.199l48.008.02v44.426h-22.508c-4.143 0-7.5 3.357-7.5 7.5s3.357 7.5 7.5 7.5h25.008c6.893 0 12.5-5.607 12.5-12.5v-16.926h45.861v304h-72.5c-4.143 0-7.5 3.357-7.5 7.5v72.5h-137c-4.143 0-7.5 3.357-7.5 7.5s3.357 7.5 7.5 7.5h144.5c1.971.001 3.909-.807 5.304-2.196l80-80c1.392-1.397 2.191-3.329 2.196-5.304v-319c0-4.143-3.357-7.5-7.5-7.5h-53.361v-15h73.361c1.379 0 2.5 1.121 2.5 2.5v179.5c0 4.143 3.357 7.5 7.5 7.5zm-102.5 213.894v-54.394h54.394z"/></g></svg>