<!DOCTYPE svg PUBLIC "-//W3C//DTD SVG 1.1//EN" "http://www.w3.org/Graphics/SVG/1.1/DTD/svg11.dtd">
<!-- Uploaded to: SVG Repo, www.svgrepo.com, Transformed by: SVG Repo Mixer Tools -->
<svg version="1.1" id="Layer_1" xmlns="http://www.w3.org/2000/svg" xmlns:xlink="http://www.w3.org/1999/xlink" viewBox="0 0 512 512" xml:space="preserve" width="800px" height="800px" fill="#000000">
<g id="SVGRepo_bgCarrier" stroke-width="0"/>
<g id="SVGRepo_tracerCarrier" stroke-linecap="round" stroke-linejoin="round"/>
<g id="SVGRepo_iconCarrier"> <path d="M503.467,0H8.533C3.823,0,0,3.823,0,8.533v494.933C0,508.177,3.823,512,8.533,512h494.933c4.71,0,8.533-3.823,8.533-8.533 V8.533C512,3.823,508.177,0,503.467,0z M179.2,366.933V256h153.6v110.933H179.2z M332.8,384v110.933H179.2V384H332.8z M332.8,128 v110.933H179.2V128H332.8z M494.933,128v110.933H349.867V128H494.933z M162.133,238.933H17.067V128h145.067V238.933z M17.067,256 h145.067v110.933H17.067V256z M349.867,256h145.067v110.933H349.867V256z M494.933,17.067v93.867H17.067V17.067H494.933z M17.067,384h145.067v110.933H17.067V384z M349.867,494.933V384h145.067v110.933H349.867z"/> <rect x="17.067" y="256" style="fill:#d6d6d6;" width="145.067" height="110.933"/> <rect x="128" y="256" style="fill:#d6d6d6;" width="34.133" height="110.933"/> <rect x="17.067" y="128" style="fill:#d6d6d6;" width="145.067" height="110.933"/> <rect x="128" y="128" style="fill:#d6d6d6;" width="34.133" height="110.933"/> <rect x="349.867" y="128" style="fill:#d6d6d6;" width="145.067" height="110.933"/> <rect x="460.8" y="128" style="fill:#d6d6d6;" width="34.133" height="110.933"/> <rect x="349.867" y="384" style="fill:#d6d6d6;" width="145.067" height="110.933"/> <rect x="460.8" y="384" style="fill:#d6d6d6;" width="34.133" height="110.933"/> <rect x="349.867" y="256" style="fill:#c70000;" width="145.067" height="110.933"/> <rect x="460.8" y="256" style="fill:#c70000;" width="34.133" height="110.933"/> <rect x="17.067" y="384" style="fill:#c70000;" width="145.067" height="110.933"/> <rect x="128" y="384" style="fill:#c70000;" width="34.133" height="110.933"/> <rect x="17.067" y="17.067" style="fill:#d6d6d6;" width="477.867" height="93.867"/> <rect x="460.8" y="17.067" style="fill:#d6d6d6;" width="34.133" height="93.867"/> <rect x="179.2" y="128" style="fill:#d6d6d6;" width="153.6" height="110.933"/> <rect x="298.667" y="128" style="fill:#d6d6d6;" width="34.133" height="110.933"/> <rect x="179.2" y="256" style="fill:#d6d6d6;" width="153.6" height="110.933"/> <rect x="298.667" y="256" style="fill:#d6d6d6;" width="34.133" height="110.933"/> <rect x="179.2" y="384" style="fill:#d6d6d6;" width="153.6" height="110.933"/> <rect x="298.667" y="384" style="fill:#d6d6d6;" width="34.133" height="110.933"/> </g>
</svg>