<!DOCTYPE svg PUBLIC "-//W3C//DTD SVG 1.1//EN" "http://www.w3.org/Graphics/SVG/1.1/DTD/svg11.dtd">
<!-- Uploaded to: SVG Repo, www.svgrepo.com, Transformed by: SVG Repo Mixer Tools -->
<svg fill="#000000" height="800px" width="800px" version="1.1" id="Capa_1" xmlns="http://www.w3.org/2000/svg" xmlns:xlink="http://www.w3.org/1999/xlink" viewBox="0 0 60 60" xml:space="preserve" stroke="#000000" stroke-width="0.9">
<g id="SVGRepo_bgCarrier" stroke-width="0"/>
<g id="SVGRepo_tracerCarrier" stroke-linecap="round" stroke-linejoin="round"/>
<g id="SVGRepo_iconCarrier"> <g> <path d="M56.699,48.02c-0.55-0.104-1.069,0.24-1.18,0.781C54.403,54.303,50.074,58,44.749,58c-5.028,0-9.446-3.3-10.948-8H38.5v-2 h-8v8h2v-3.848C34.669,56.833,39.415,60,44.749,60c6.304,0,11.42-4.341,12.731-10.801C57.59,48.657,57.24,48.13,56.699,48.02z"/> <path d="M56.5,36v4.308C54.25,35.855,49.796,33,44.749,33c-6.109,0-11.541,3.997-13.209,9.721c-0.154,0.53,0.15,1.085,0.681,1.239 c0.529,0.154,1.085-0.15,1.239-0.681C34.858,38.482,39.605,35,44.749,35c4.565,0,8.562,2.766,10.33,7H50.5v2h8v-8H56.5z"/> <path d="M37.5,32h9V21h-9h-2h-7h-2h-7h-2h-9v9v2v7v2v9h9h2h9v-9v-2v-7h7H37.5z M37.5,23h7v7h-7V23z M19.5,23h7v7h-7V23z M10.5,23h7 v7h-7V23z M10.5,32h7v7h-7V32z M17.5,48h-7v-7h7V48z M26.5,48h-7v-7h7V48z M26.5,39h-7v-7h7V39z M28.5,30v-7h7v7H28.5z"/> <path d="M25.5,55h-22V16h48v13c0,0.553,0.447,1,1,1s1-0.447,1-1V15V5c0-0.553-0.447-1-1-1h-5V1c0-0.553-0.447-1-1-1h-7 c-0.553,0-1,0.447-1,1v3h-22V1c0-0.553-0.447-1-1-1h-7c-0.553,0-1,0.447-1,1v3h-5c-0.553,0-1,0.447-1,1v10v41c0,0.553,0.447,1,1,1 h23c0.553,0,1-0.447,1-1S26.053,55,25.5,55z M40.5,2h5v3v3h-5V5V2z M9.5,2h5v3v3h-5V5V2z M3.5,6h4v3c0,0.553,0.447,1,1,1h7 c0.553,0,1-0.447,1-1V6h22v3c0,0.553,0.447,1,1,1h7c0.553,0,1-0.447,1-1V6h4v8h-48V6z"/> </g> </g>
</svg>