<?xml version="1.0" encoding="iso-8859-1"?>
<!-- Generator: Adobe Illustrator 19.0.0, SVG Export Plug-In . SVG Version: 6.00 Build 0)  -->
<svg version="1.1" id="Layer_1" xmlns="http://www.w3.org/2000/svg" xmlns:xlink="http://www.w3.org/1999/xlink" x="0px" y="0px"
	 viewBox="0 0 425 425" style="enable-background:new 0 0 425 425;" xml:space="preserve">
<g>
	<polygon points="245.462,210.825 212.5,243.787 179.538,210.825 158.325,232.038 191.287,265 158.325,297.962 179.538,319.175 
		212.5,286.213 245.462,319.175 266.675,297.962 233.713,265 266.675,232.038 	"/>
	<path d="M293.333,45V20h-30v25H161.667V20h-30v25H0v360h425V45H293.333z M131.667,75v25h30V75h101.667v20h30V75H395v50H30V75
		H131.667z M30,375V155h365v220H30z"/>
</g>
<g>
</g>
<g>
</g>
<g>
</g>
<g>
</g>
<g>
</g>
<g>
</g>
<g>
</g>
<g>
</g>
<g>
</g>
<g>
</g>
<g>
</g>
<g>
</g>
<g>
</g>
<g>
</g>
<g>
</g>
</svg>
