<?xml version="1.0" encoding="iso-8859-1"?>
<!-- Uploaded to: SVG Repo, www.svgrepo.com, Generator: SVG Repo Mixer Tools -->
<svg height="800px" width="800px" version="1.1" id="Layer_1" xmlns="http://www.w3.org/2000/svg" xmlns:xlink="http://www.w3.org/1999/xlink" 
	 viewBox="0 0 512.002 512.002" xml:space="preserve">
<g>
	<path style="fill:#77C0BC;" d="M30.388,458.408l3.868-19.338l19.338-3.868c27.722,27.722,72.83,27.723,100.554,0l209.58-209.582
		c14.928-14.928,14.927-39.217,0-54.144l3.868-19.338l19.338-3.868c27.722,27.722,27.723,72.83,0,100.554L177.352,458.408
		C136.833,498.925,70.907,498.925,30.388,458.408z"/>
	<path style="fill:#77C0BC;" d="M249.305,479.273L226.1,456.068l222.711-222.711c40.518-40.518,40.517-106.445,0-146.962
		l3.868-19.338l19.338-3.868c53.312,53.312,53.313,140.059,0,193.372L249.305,479.273z"/>
</g>
<g>
	<path style="fill:#98D9D5;" d="M125.546,355.515l-23.204-23.205l184.037-184.037c27.723-27.723,72.831-27.722,100.554,0
		l-23.204,23.204c-14.927-14.927-39.217-14.928-54.144,0L125.546,355.515z"/>
	<path style="fill:#98D9D5;" d="M30.388,458.408c-40.517-40.517-40.518-106.445,0-146.962L278.644,63.19
		c53.313-53.313,140.06-53.312,193.372,0l-23.204,23.204c-40.517-40.517-106.445-40.518-146.962,0L53.594,334.65
		c-27.723,27.723-27.722,72.831,0,100.554L30.388,458.408z"/>
</g>
</svg>