<svg xmlns="http://www.w3.org/2000/svg" data-name="Layer 1" viewBox="0 0 32 32"><path fill="#9e61a4" d="M16,.5v7A8.481,8.481,0,0,0,9.99,9.99L5.04,5.04A15.464,15.464,0,0,1,16,.5Z"/><path fill="#70cadb" d="M9.99,9.99A8.481,8.481,0,0,0,7.5,16H.5A15.464,15.464,0,0,1,5.04,5.04Z"/><path fill="#55bb8c" d="M9.99,22.01,5.04,26.96A15.464,15.464,0,0,1,.5,16h7A8.481,8.481,0,0,0,9.99,22.01Z"/><path fill="#b9d34c" d="M16,24.5v7A15.463,15.463,0,0,1,5.04,26.96l4.95-4.95A8.481,8.481,0,0,0,16,24.5Z"/><path fill="#ed4569" d="M26.96,26.96A15.463,15.463,0,0,1,16,31.5v-7a8.481,8.481,0,0,0,6.01-2.49Z"/><path fill="#ee654b" d="M31.5,16a15.464,15.464,0,0,1-4.54,10.96l-4.95-4.95A8.481,8.481,0,0,0,24.5,16Z"/><path fill="#f8a839" d="M31.5,16h-7a8.481,8.481,0,0,0-2.49-6.01l4.95-4.95A15.464,15.464,0,0,1,31.5,16Z"/><path fill="#fddd56" d="M26.96,5.04,22.01,9.99A8.481,8.481,0,0,0,16,7.5V.5A15.464,15.464,0,0,1,26.96,5.04Z"/><path d="M27.313,4.687A16,16,0,1,0,4.687,27.313,16,16,0,1,0,27.313,4.687ZM30.992,15.5H24.986A8.921,8.921,0,0,0,22.708,10l4.247-4.247A14.881,14.881,0,0,1,30.992,15.5ZM16.5,1.008a14.881,14.881,0,0,1,9.747,4.038L22,9.292a8.923,8.923,0,0,0-5.5-2.279Zm-1,0V7.014A8.923,8.923,0,0,0,10,9.292L5.753,5.046A14.881,14.881,0,0,1,15.5,1.008ZM5.046,5.753,9.292,10a8.921,8.921,0,0,0-2.279,5.5H1.008A14.881,14.881,0,0,1,5.046,5.753ZM1.008,16.5H7.014A8.923,8.923,0,0,0,9.292,22L5.046,26.247A14.881,14.881,0,0,1,1.008,16.5ZM15.5,30.992a14.881,14.881,0,0,1-9.747-4.038L10,22.708a8.923,8.923,0,0,0,5.5,2.279Zm-5.156-9.335A8,8,0,1,1,16,24,7.947,7.947,0,0,1,10.344,21.656ZM16.5,30.992V24.986A8.923,8.923,0,0,0,22,22.708l4.247,4.247A14.881,14.881,0,0,1,16.5,30.992Zm10.454-4.745L22.708,22a8.923,8.923,0,0,0,2.279-5.5h6.005A14.881,14.881,0,0,1,26.954,26.247Z"/></svg>