<?xml version="1.0" ?><svg id="Layer_1" style="enable-background:new 0 0 512 512;" version="1.1" viewBox="0 0 512 512" xml:space="preserve" xmlns="http://www.w3.org/2000/svg" xmlns:xlink="http://www.w3.org/1999/xlink"><style type="text/css">
	.st0{fill:#F16723;}
	.st1{fill:#FBD20A;}
	.st2{fill:#FFE4B8;}
	.st3{fill:#E7D0A9;}
	.st4{fill:#FFFFFF;}
	.st5{fill:#4E9BD4;}
	.st6{fill:#EE3C7A;}
	.st7{fill:#F05F88;}
	.st8{fill:#3769A5;}
	.st9{fill:#FAAF1A;}
	.st10{fill:#F05225;}
</style><g><path class="st0" d="M91.2,425c-5.7,0-10.3-4.6-10.3-10.3s4.6-10.3,10.3-10.3c5.7,0,10.3,4.6,10.3,10.3S96.9,425,91.2,425z    M91.2,411.4c-1.8,0-3.3,1.5-3.3,3.3c0,1.8,1.5,3.3,3.3,3.3c1.8,0,3.3-1.5,3.3-3.3C94.5,412.9,93,411.4,91.2,411.4z"/><circle cx="400.9" cy="246.8" r="2.1"/><circle cx="403" cy="58.1" r="2.1"/><circle cx="72.7" cy="140.9" r="2.1"/><circle cx="386.9" cy="52" r="3.1"/><path class="st1" d="M419.1,231.5c-6.6,0-11.9-5.3-11.9-11.9c0-6.6,5.3-11.9,11.9-11.9S431,213,431,219.6   C431,226.2,425.7,231.5,419.1,231.5z M419.1,214.7c-2.7,0-4.9,2.2-4.9,4.9c0,2.7,2.2,4.9,4.9,4.9c2.7,0,4.9-2.2,4.9-4.9   C424,216.9,421.8,214.7,419.1,214.7z"/><path class="st0" d="M468.2,394.8h-3.5v-3.5c0-1.9-1.6-3.5-3.5-3.5s-3.5,1.6-3.5,3.5v3.5h-3.5c-1.9,0-3.5,1.6-3.5,3.5   s1.6,3.5,3.5,3.5h3.5v3.5c0,1.9,1.6,3.5,3.5,3.5s3.5-1.6,3.5-3.5v-3.5h3.5c1.9,0,3.5-1.6,3.5-3.5S470.1,394.8,468.2,394.8z"/><path class="st2" d="M443.7,329.6c-0.1,0-0.1,0-0.2,0c-44.9,0-81.4-36.4-81.4-81.4s36.4-81.4,81.4-81.4c0.1,0,0.1,0,0.2,0   c7.8,0,13-8.2,9.3-15.1c-34.7-65-103.4-109.2-182.3-108.8c-113.3,0.6-204.3,92-204.3,205.3c0,113.4,91.9,205.3,205.3,205.3   c78.5,0,146.6-44,181.2-108.7C456.6,337.9,451.6,329.5,443.7,329.6z M315.8,394.6c-16.2,0-29.4-13.2-29.4-29.4   c0-16.2,13.2-29.4,29.4-29.4s29.4,13.2,29.4,29.4C345.2,381.4,332,394.6,315.8,394.6z"/><g><path class="st3" d="M443.7,329.6c-0.1,0-0.1,0-0.2,0c-44.9,0-81.4-36.4-81.4-81.4s36.4-81.4,81.4-81.4c0.1,0,0.1,0,0.2,0    c7.8,0,13-8.2,9.3-15.1c-34.7-65-103.4-109.2-182.3-108.8c-4.3,0-8.6,0.2-12.9,0.5c72.5,4.9,134.7,47.5,167.2,108.3    c3.7,6.9-1.5,15.2-9.3,15.1c-0.1,0-0.1,0-0.2,0c-44.9,0-74.4,36.4-74.4,81.4s29.4,81.4,74.4,81.4c0.1,0,0.1,0,0.2,0    c7.9,0,13,8.3,9.2,15.3c-32.5,60.8-94.6,103.3-167.1,108.2c4.6,0.3,9.2,0.5,13.9,0.5c78.5,0,146.6-44,181.2-108.7    C456.6,337.9,451.6,329.5,443.7,329.6z"/></g><g><path class="st4" d="M86.7,248.2c0-109.4,89.8-198.5,197.7-205c-4.5-0.3-9.1-0.4-13.7-0.4c-113.3,0.6-204.3,92-204.3,205.3    c0,113.4,91.9,205.3,205.3,205.3c4.3,0,8.5-0.1,12.7-0.4C176.9,446.6,86.7,357.4,86.7,248.2z"/></g><path class="st5" d="M125,63.8h-3.5v-3.5c0-1.9-1.6-3.5-3.5-3.5s-3.5,1.6-3.5,3.5v3.5H111c-1.9,0-3.5,1.6-3.5,3.5s1.6,3.5,3.5,3.5   h3.5v3.5c0,1.9,1.6,3.5,3.5,3.5s3.5-1.6,3.5-3.5v-3.5h3.5c1.9,0,3.5-1.6,3.5-3.5S126.9,63.8,125,63.8z"/><circle cx="429.6" cy="425.4" r="2.1"/><path d="M271.7,459.6c-39.8,0-78.7-11.1-112.3-32.2c-32.7-20.5-59.2-49.6-76.5-84c-1.5-3-0.3-6.6,2.7-8.1c3-1.5,6.6-0.3,8.1,2.7   c16.4,32.4,41.3,59.8,72.2,79.2c31.7,19.9,68.3,30.4,105.9,30.4c73.7,0,141.1-40.4,175.9-105.5c1.1-2,0.3-3.7-0.1-4.4   c-0.4-0.6-1.5-2.1-3.8-2.1h-0.2c-48.2,0-87.4-39.2-87.4-87.4c0-3.3,2.7-6,6-6s6,2.7,6,6c0,41.6,33.8,75.4,75.4,75.4h0.2   c5.8,0,11.1,3,14.1,7.9c3,5,3.1,11,0.4,16.2C421.3,416.7,349.8,459.6,271.7,459.6z M315.8,401.9c-20.3,0-36.8-16.5-36.8-36.8   s16.5-36.8,36.8-36.8s36.8,16.5,36.8,36.8S336.1,401.9,315.8,401.9z M315.8,340.3c-13.7,0-24.8,11.1-24.8,24.8s11.1,24.8,24.8,24.8   s24.8-11.1,24.8-24.8S329.5,340.3,315.8,340.3z M82.2,333.6c-2.3,0-4.6-1.4-5.5-3.7c-4-9.5-7.2-19.3-9.8-29.2   c-0.8-3.2,1.1-6.5,4.3-7.3c3.2-0.8,6.5,1.1,7.3,4.3c2.4,9.4,5.5,18.6,9.2,27.6c1.3,3.1-0.2,6.6-3.2,7.8   C83.8,333.5,83,333.6,82.2,333.6z M69.8,291.7c-2.8,0-5.3-2-5.9-4.9c-2.5-12.9-3.5-24.1-3.5-38.6c0-56.4,21.8-109.4,61.4-149.1   c39.6-39.8,92.5-61.9,148.9-62.2c0.4,0,0.7,0,1.1,0c78.2,0,149.6,42.8,186.5,112c2.7,5,2.6,11-0.4,15.9c-3,5-8.3,8-14.2,8h-0.2   c-33.7,0-63.5,22.7-72.6,55.1c-0.9,3.2-4.2,5.1-7.4,4.2c-3.2-0.9-5.1-4.2-4.2-7.4c10.5-37.6,45.1-63.9,84.2-63.9h0.2   c1.6,0,3.1-0.8,3.9-2.2c0.4-0.8,1.1-2.3,0.1-4.1c-34.8-65.2-102.2-105.6-176-105.6c-0.3,0-0.7,0-1,0   c-53.2,0.3-103.1,21.1-140.4,58.6C93,145,72.4,195,72.4,248.2c0,13.8,1,24.3,3.3,36.4c0.6,3.3-1.5,6.4-4.7,7   C70.6,291.7,70.2,291.7,69.8,291.7z"/><ellipse class="st6" cx="210.3" cy="146" rx="30.1" ry="42.1"/><ellipse class="st4" cx="188" cy="146" rx="30.1" ry="42.1"/><ellipse class="st7" cx="195.7" cy="146" rx="24.4" ry="42.1" transform="matrix(0.9998 -2.009152e-02 2.009152e-02 0.9998 -2.8939 3.9614)"/><g><ellipse class="st8" cx="330.7" cy="124.1" rx="30.1" ry="42.1"/><ellipse class="st4" cx="308.3" cy="124.1" rx="30.1" ry="42.1"/><ellipse class="st5" cx="316.1" cy="124.1" rx="24.4" ry="42.1"/></g><g><ellipse class="st9" cx="157" cy="256" rx="30.1" ry="42.1"/><ellipse class="st4" cx="134.7" cy="256" rx="30.1" ry="42.1"/><ellipse class="st1" cx="142.4" cy="256" rx="24.4" ry="42.1"/></g><g><ellipse class="st10" cx="209.4" cy="357.8" rx="30.1" ry="42.1"/><ellipse class="st4" cx="187.1" cy="357.8" rx="30.1" ry="42.1"/><ellipse class="st0" cx="194.8" cy="357.8" rx="24.4" ry="42.1"/></g><path d="M198.3,194.1c-26.5,0-48.1-21.6-48.1-48.1s21.6-48.1,48.1-48.1s48.1,21.6,48.1,48.1S224.8,194.1,198.3,194.1z M198.3,109.9   c-19.9,0-36.1,16.2-36.1,36.1c0,19.9,16.2,36.1,36.1,36.1c19.9,0,36.1-16.2,36.1-36.1C234.4,126.1,218.2,109.9,198.3,109.9z"/><path d="M319.5,172.2c-26.5,0-48.1-21.6-48.1-48.1S293,76,319.5,76s48.1,21.6,48.1,48.1S346,172.2,319.5,172.2z M319.5,88   c-19.9,0-36.1,16.2-36.1,36.1c0,19.9,16.2,36.1,36.1,36.1s36.1-16.2,36.1-36.1C355.6,104.2,339.4,88,319.5,88z"/><path d="M145.8,304.1c-26.5,0-48.1-21.6-48.1-48.1s21.6-48.1,48.1-48.1s48.1,21.6,48.1,48.1S172.3,304.1,145.8,304.1z M145.8,219.9   c-19.9,0-36.1,16.2-36.1,36.1c0,19.9,16.2,36.1,36.1,36.1c19.9,0,36.1-16.2,36.1-36.1C181.9,236.1,165.7,219.9,145.8,219.9z"/><path d="M198.3,405.9c-26.5,0-48.1-21.6-48.1-48.1s21.6-48.1,48.1-48.1s48.1,21.6,48.1,48.1S224.8,405.9,198.3,405.9z M198.3,321.7   c-19.9,0-36.1,16.2-36.1,36.1s16.2,36.1,36.1,36.1c19.9,0,36.1-16.2,36.1-36.1S218.2,321.7,198.3,321.7z"/></g></svg>