<!DOCTYPE svg PUBLIC "-//W3C//DTD SVG 1.1//EN" "http://www.w3.org/Graphics/SVG/1.1/DTD/svg11.dtd">
<!-- Uploaded to: SVG Repo, www.svgrepo.com, Transformed by: SVG Repo Mixer Tools -->
<svg width="800px" height="800px" viewBox="0 0 1024 1024" class="icon" version="1.1" xmlns="http://www.w3.org/2000/svg" fill="#000000">
<g id="SVGRepo_bgCarrier" stroke-width="0"/>
<g id="SVGRepo_tracerCarrier" stroke-linecap="round" stroke-linejoin="round"/>
<g id="SVGRepo_iconCarrier">
<path d="M819.2 128H166.4c-14.08 0-25.6 11.52-25.6 25.6v716.8c0 14.08 11.52 25.6 25.6 25.6h742.4c14.08 0 25.6-11.52 25.6-25.6V243.2l-115.2-115.2z" fill="#7c9cd0"/>
<path d="M908.8 908.8H166.4c-21.76 0-38.4-16.64-38.4-38.4V153.6c0-21.76 16.64-38.4 38.4-38.4h652.8c3.84 0 6.4 1.28 8.96 3.84l115.2 115.2c2.56 2.56 3.84 5.12 3.84 8.96v627.2c0 21.76-16.64 38.4-38.4 38.4zM166.4 140.8c-7.68 0-12.8 5.12-12.8 12.8v716.8c0 7.68 5.12 12.8 12.8 12.8h742.4c7.68 0 12.8-5.12 12.8-12.8V248.32L814.08 140.8H166.4z" fill="#231C1C"/>
<path d="M768 422.4c0 14.08-11.52 25.6-25.6 25.6H332.8c-14.08 0-25.6-11.52-25.6-25.6V128h460.8v294.4z" fill="#f5f2d1"/>
<path d="M742.4 460.8H332.8c-21.76 0-38.4-16.64-38.4-38.4V128c0-7.68 5.12-12.8 12.8-12.8h460.8c7.68 0 12.8 5.12 12.8 12.8v294.4c0 21.76-16.64 38.4-38.4 38.4zM320 140.8v281.6c0 7.68 5.12 12.8 12.8 12.8h409.6c7.68 0 12.8-5.12 12.8-12.8V140.8H320z" fill="#231C1C"/>
<path d="M819.2 896H256V627.2c0-14.08 10.24-25.6 23.04-25.6h515.84c12.8 0 23.04 11.52 23.04 25.6v268.8z" fill="#aebf97"/>
<path d="M819.2 908.8H256c-7.68 0-12.8-5.12-12.8-12.8V627.2c0-21.76 16.64-38.4 35.84-38.4h515.84c20.48 0 35.84 16.64 35.84 38.4v268.8c1.28 7.68-3.84 12.8-11.52 12.8z m-550.4-25.6h537.6V627.2c0-7.68-5.12-12.8-10.24-12.8H279.04c-6.4 0-10.24 5.12-10.24 12.8v256z" fill="#231C1C"/>
<path d="M601.6 217.6h89.6v153.6h-89.6z" fill="#7c9cd0"/>
<path d="M691.2 384h-89.6c-7.68 0-12.8-5.12-12.8-12.8V217.6c0-7.68 5.12-12.8 12.8-12.8h89.6c7.68 0 12.8 5.12 12.8 12.8v153.6c0 7.68-5.12 12.8-12.8 12.8z m-76.8-25.6h64V230.4h-64v128z" fill="#231C1C"/>
<path d="M358.4 704h358.4v25.6H358.4z" fill="#231C1C"/>
<path d="M358.4 793.6h358.4v25.6H358.4z" fill="#231C1C"/>
</g>
</svg>