<?xml version="1.0"?>
<svg xmlns="http://www.w3.org/2000/svg" xmlns:xlink="http://www.w3.org/1999/xlink" xmlns:svgjs="http://svgjs.com/svgjs" version="1.1" width="512" height="512" x="0" y="0" viewBox="0 0 401.5411 401" style="enable-background:new 0 0 512 512" xml:space="preserve" class=""><g><path xmlns="http://www.w3.org/2000/svg" d="m381.289062 32.242188c13.671876 13.664062 13.671876 35.824218 0 49.488281l-17.679687 17.679687-61.230469-61.230468 17.679688-17.679688c13.671875-13.667969 35.832031-13.667969 49.5 0zm0 0" fill="#e3e3e3" data-original="#00acea" style="" class=""/><path xmlns="http://www.w3.org/2000/svg" d="m363.609375 99.410156-160.148437 160.160156h-.011719l-61.230469-61.230468 160.160156-160.160156zm0 0" fill="#6b6c6b" data-original="#00efd1" style="" class=""/><path xmlns="http://www.w3.org/2000/svg" d="m142.21875 198.339844 61.230469 61.230468-.570313.570313-84.6875 23.460937 23.457032-84.691406zm0 0" fill="#e5e5e5" data-original="#fedb41" style="" class=""/><g xmlns="http://www.w3.org/2000/svg" fill="#083863"><path d="m370.589844 250.960938c-5.523438 0-10 4.476562-10 10v88.789062c-.019532 16.5625-13.4375 29.980469-30 30h-280.589844c-16.5625-.019531-29.980469-13.4375-30-30v-260.589844c.019531-16.558594 13.4375-29.980468 30-30h88.789062c5.523438 0 10-4.476562 10-10 0-5.523437-4.476562-10-10-10h-88.789062c-27.601562.03125-49.96875 22.398438-50 50v260.589844c.03125 27.601562 22.398438 49.96875 50 50h280.589844c27.601562-.03125 49.96875-22.398438 50-50v-88.789062c0-5.523438-4.476563-10-10-10zm0 0" fill="#494f54" data-original="#083863" style="" class=""/><path d="m376.632812 13.429688c-17.589843-17.546876-46.058593-17.546876-63.644531 0l-178.410156 178.410156c-1.21875 1.222656-2.105469 2.738281-2.566406 4.398437l-23.457031 84.691407c-.964844 3.472656.015624 7.191406 2.5625 9.742187 2.550781 2.546875 6.269531 3.527344 9.742187 2.566406l84.691406-23.460937c1.664063-.460938 3.183594-1.347656 4.40625-2.570313l.566407-.570312 177.835937-177.835938c17.574219-17.570312 17.574219-46.058593 0-63.628906zm-229.675781 203.789062 37.613281 37.617188-52.03125 14.414062zm56.5 42.355469v-.007813l6.519531 6.519532zm0-14.140625-47.09375-47.09375 146.015625-146.015625 47.089844 47.085937zm170.761719-170.773438-10.609375 10.609375-47.085937-47.089843 10.609374-10.609376c9.765626-9.746093 25.582032-9.746093 35.351563 0l11.734375 11.746094c9.765625 9.757813 9.765625 25.585938 0 35.34375zm0 0" fill="#494f54" data-original="#083863" style="" class=""/></g></g></svg>
