<?xml version="1.0" encoding="iso-8859-1"?>
<!-- Generator: Adobe Illustrator 19.0.0, SVG Export Plug-In . SVG Version: 6.00 Build 0)  -->
<svg version="1.1" id="Layer_1" xmlns="http://www.w3.org/2000/svg" xmlns:xlink="http://www.w3.org/1999/xlink" x="0px" y="0px"
	 viewBox="0 0 279.06 279.06" style="enable-background:new 0 0 279.06 279.06;" xml:space="preserve">
<g>
	<g id="XMLID_22_">
		<g>
			<g>
				<path style="fill:#F2CE75;" d="M263.104,55.194v151.691H239.65V86.642c0-4.4-3.563-7.993-7.993-7.993H92.452v-14.47
					c0-4.4-3.563-7.963-7.963-7.963H55.366V32.763h60.54v14.469c0,4.4,3.563,7.963,7.994,7.963h139.204V55.194z"/>
			</g>
			<g>
				<path style="fill:#F2CE75;" d="M223.694,94.635v151.66H16.111V119.917c0-0.558-0.062-1.084-0.155-1.611V72.173h60.54v14.469
					c0,4.4,3.563,7.993,7.993,7.993H223.694z"/>
			</g>
			<g>
				<path style="fill:#FEDE94;" d="M76.496,86.642V72.173h-60.54v46.133c0.093,0.527,0.155,1.053,0.155,1.611V222.06
					c5.908,3.693,12.78,5.85,20.142,5.85H182.49c11.962,0,21.66-10.249,21.66-22.893v-89.459c0-7.588-1.843-14.714-5.072-20.923
					H84.489C80.059,94.635,76.496,91.041,76.496,86.642z"/>
			</g>
			<g>
				<path style="fill:#2D213F;" d="M279.06,47.232v167.647c0,4.4-3.563,7.963-7.963,7.963H239.65v31.447
					c0,4.4-3.563,7.993-7.993,7.993H8.148c-4.431,0-7.993-3.594-7.993-7.993V121.497C0.031,120.97,0,120.444,0,119.917V64.179
					c0-4.4,3.563-7.963,7.963-7.963H39.41V24.77c0-4.4,3.563-7.993,7.963-7.993H123.9c4.4,0,7.963,3.594,7.963,7.993v14.469h139.236
					C275.497,39.238,279.06,42.801,279.06,47.232z M263.104,206.885V55.194H123.899c-4.431,0-7.993-3.563-7.993-7.963V32.763h-60.54
					v23.454H84.49c4.4,0,7.963,3.563,7.963,7.963v14.469h139.205c4.431,0,7.994,3.594,7.994,7.993v120.243H263.104z
					 M223.694,246.296V94.635H84.489c-4.431,0-7.993-3.594-7.993-7.993V72.173h-60.54v46.133c0.093,0.527,0.155,1.053,0.155,1.611
					v126.378H223.694z"/>
			</g>
		</g>
	</g>
</g>
<g>
</g>
<g>
</g>
<g>
</g>
<g>
</g>
<g>
</g>
<g>
</g>
<g>
</g>
<g>
</g>
<g>
</g>
<g>
</g>
<g>
</g>
<g>
</g>
<g>
</g>
<g>
</g>
<g>
</g>
</svg>
