<?xml version="1.0" encoding="iso-8859-1"?>
<!-- Uploaded to: SVG Repo, www.svgrepo.com, Generator: SVG Repo Mixer Tools -->
<svg height="800px" width="800px" version="1.1" id="Layer_1" xmlns="http://www.w3.org/2000/svg" xmlns:xlink="http://www.w3.org/1999/xlink" 
	 viewBox="0 0 512 512" xml:space="preserve">
<g>
	<polyline style="fill:#F2F2F2;" points="229.038,303.8 273.6,348.352 292.494,329.46 247.93,284.907 	"/>
	<path style="fill:#F2F2F2;" d="M216.13,290.892L13.007,87.77c-8.995-9.007-3.585-24.423,9.071-25.824
		c4.476-0.489,8.952-0.739,13.396-0.739c32.255,0,63.436,12.765,86.501,35.83l144.056,144.056"/>
</g>
<path style="fill:#F97E62;" d="M227.433,338.175L107.14,471.565c-13.553,16.013-37.892,17.015-52.721,2.187
	c-14.84-14.829-13.826-39.167,2.175-52.732l133.39-120.281l9.282,9.271l18.883,18.895L227.433,338.175z"/>
<g>
	<path style="fill:#F2F2F2;" d="M218.151,328.904l-18.883-18.895L301.497,207.78c2.164,3.189,4.67,6.219,7.494,9.043
		c3.656,3.667,7.665,6.777,11.902,9.339L218.151,328.904z"/>
	<path style="fill:#F2F2F2;" d="M301.497,207.78c-10.296-25.421-10.865-30.352-10.865-35.272c0-16.047,6.116-32.095,18.359-44.327
		l21.526-21.526c-4.077,4.077-6.116,9.43-6.116,14.772c0,5.342,2.039,10.694,6.116,14.772c8.166,8.155,21.389,8.155,29.555,0
		c-4.089,4.077-6.127,9.43-6.127,14.772c0,5.353,2.039,10.694,6.127,14.783c8.155,8.155,21.389,8.155,29.544,0
		c-4.077,4.077-6.116,9.419-6.116,14.772s2.039,10.694,6.116,14.772c8.166,8.166,21.389,8.166,29.555,0l-21.537,21.526
		c-20.819,20.819-52.629,23.94-76.74,9.339c-4.237-2.563-8.246-5.672-11.902-9.339C306.166,213.998,303.661,210.969,301.497,207.78z
		"/>
</g>
<path style="fill:#F97E62;" d="M423.321,479.184L423.321,479.184c-14.832,14.832-39.173,13.825-52.73-2.182L264.326,357.631
	l37.442-37.442l119.371,106.266C437.147,440.011,438.155,464.352,423.321,479.184z"/>
<path d="M509.498,104.944c-3.336-3.336-8.745-3.336-12.079,0l-84.288,84.288c-4.816,4.816-12.652,4.816-17.47,0
	c-4.816-4.816-4.816-12.653,0-17.47l84.288-84.288c3.336-3.336,3.336-8.745,0-12.079c-3.335-3.337-8.743-3.336-12.079,0
	l-84.288,84.288c-4.815,4.816-12.652,4.816-17.469,0s-4.816-12.652,0-17.469L450.4,57.926c3.336-3.336,3.336-8.745,0-12.079
	c-3.336-3.336-8.745-3.336-12.079,0l-84.288,84.288c-4.816,4.816-12.652,4.816-17.47,0c-4.816-4.816-4.816-12.653,0-17.47
	l84.288-84.288c3.336-3.336,3.336-8.745,0-12.079c-3.335-3.336-8.743-3.336-12.079,0L302.954,122.116
	c-22.8,22.8-26.865,57.332-12.226,84.335l-91.458,91.457l-3.235-3.235c-3.214-3.214-8.384-3.348-11.76-0.304l-133.3,120.2
	c-9.382,7.997-15.053,19.638-15.563,31.96c-0.513,12.369,4.215,24.483,12.969,33.237c8.324,8.324,19.685,13.006,31.415,13.006
	c0.605,0,1.214-0.013,1.821-0.038c12.322-0.51,23.964-6.181,31.961-15.564l120.202-133.298c3.044-3.376,2.911-8.545-0.304-11.76
	l-3.235-3.235l76.503-76.503c3.336-3.336,3.336-8.745,0-12.079c-3.336-3.336-8.745-3.336-12.079,0l-76.503,76.504l-6.812-6.812
	l89.431-89.43c0.707,0.772,1.426,1.539,2.173,2.286c13.886,13.886,32.126,20.829,50.364,20.829c18.24,0,36.478-6.943,50.364-20.829
	L509.5,117.025C512.834,113.689,512.834,108.28,509.498,104.944z M100.806,465.826c-0.059,0.066-0.117,0.132-0.174,0.199
	c-4.995,5.898-12,9.323-19.722,9.642c-7.726,0.315-14.985-2.515-20.45-7.979c-5.465-5.466-8.299-12.729-7.979-20.45
	c0.32-7.723,3.745-14.726,9.642-19.722c0.067-0.057,0.134-0.115,0.199-0.174L189.688,312.49l25.97,25.97L100.806,465.826z
	 M315.032,210.764c-21.11-21.11-21.11-55.459,0-76.568l2.643-2.643c1.424,3.893,3.688,7.544,6.806,10.663
	c5.739,5.739,13.276,8.608,20.815,8.608c0.043,0,0.087-0.002,0.13-0.003c-0.033,7.581,2.834,15.173,8.605,20.944
	c5.739,5.739,13.276,8.608,20.814,8.608c0.043,0,0.087-0.002,0.13-0.003c-0.033,7.581,2.834,15.174,8.606,20.945
	c3.118,3.118,6.771,5.383,10.664,6.806l-2.643,2.643C370.49,231.872,336.142,231.874,315.032,210.764z"/>
<path d="M65.498,140.236c3.336-3.336,3.336-8.745,0-12.079L19.051,81.709c-2.665-2.668-1.984-5.714-1.567-6.9
	c0.416-1.184,1.788-3.984,5.523-4.397c4.181-0.457,8.376-0.688,12.469-0.688c29.954,0,59.28,12.148,80.46,33.328l126.617,126.616
	c1.667,1.667,3.854,2.502,6.04,2.502s4.372-0.834,6.04-2.502c3.336-3.336,3.336-8.745,0-12.079L128.014,90.972
	c-24.36-24.36-58.089-38.331-92.539-38.331c-4.709,0-9.529,0.265-14.336,0.79c-9.147,1.013-16.724,7.035-19.774,15.716
	C-1.686,77.83,0.46,87.27,6.967,93.785l46.452,46.452C56.755,143.572,62.163,143.572,65.498,140.236z"/>
<path d="M70.762,145.5c-3.336,3.336-3.336,8.745,0,12.079L192.65,279.469c1.667,1.667,3.854,2.502,6.04,2.502
	s4.372-0.834,6.04-2.502c3.336-3.336,3.336-8.745,0-12.079L82.841,145.5C79.507,142.164,74.098,142.164,70.762,145.5z"/>
<path d="M426.745,419.983l-26.672-23.744c-3.523-3.135-8.921-2.823-12.06,0.7c-3.137,3.524-2.823,8.922,0.7,12.06l26.746,23.81
	c0.052,0.047,0.106,0.093,0.159,0.139c5.897,4.994,9.322,11.999,9.641,19.72c0.32,7.723-2.514,14.986-7.979,20.452
	c-5.466,5.465-12.735,8.298-20.45,7.979c-7.722-0.319-14.726-3.744-19.722-9.642c-0.046-0.054-0.091-0.107-0.138-0.159
	L276.064,357.947l26.044-26.044l68.424,60.912c3.523,3.137,8.922,2.825,12.06-0.7c3.137-3.524,2.823-8.922-0.7-12.06l-74.444-66.271
	c-3.379-3.009-8.519-2.86-11.719,0.341l-3.235,3.235l-12.377-12.37c-3.337-3.336-8.746-3.334-12.079,0.003
	c-3.335,3.337-3.334,8.746,0.003,12.079l12.371,12.364l-6.812,6.812l-12.374-12.366c-3.337-3.336-8.746-3.334-12.079,0.003
	c-3.335,3.337-3.334,8.746,0.003,12.079l12.373,12.365l-3.235,3.235c-3.2,3.2-3.348,8.339-0.341,11.72l106.2,119.297
	c7.999,9.396,19.649,15.076,31.981,15.586c0.608,0.025,1.214,0.038,1.821,0.038c11.73,0,23.092-4.683,31.415-13.006
	c8.754-8.754,13.48-20.868,12.969-33.238C441.82,439.631,436.141,427.982,426.745,419.983z"/>
</svg>