<?xml version="1.0" encoding="iso-8859-1"?>
<!-- Generator: Adobe Illustrator 19.0.0, SVG Export Plug-In . SVG Version: 6.00 Build 0)  -->
<svg version="1.1" id="Layer_1" xmlns="http://www.w3.org/2000/svg" xmlns:xlink="http://www.w3.org/1999/xlink" x="0px" y="0px"
	 viewBox="0 0 512 512" style="enable-background:new 0 0 512 512;" xml:space="preserve">
<circle style="fill:#FFD782;" cx="256.006" cy="256.005" r="247.389"/>
<path style="opacity:0.1;enable-background:new    ;" d="M77.547,255.999c0-124.928,92.609-228.209,212.918-244.982
	C279.199,9.447,267.697,8.616,256,8.616C119.374,8.616,8.617,119.374,8.617,255.999c0,136.627,110.758,247.383,247.383,247.383
	c11.697,0,23.199-0.831,34.465-2.401C170.156,484.209,77.547,380.928,77.547,255.999z"/>
<g>
	<rect x="222.632" y="197.679" style="fill:#515262;" width="66.736" height="225.802"/>
	<circle style="fill:#515262;" cx="256.006" cy="126.635" r="39.313"/>
</g>
<path d="M439.868,430.105c-2.055,0-4.116-0.731-5.764-2.214c-3.536-3.185-3.821-8.632-0.638-12.168
	c39.53-43.893,61.299-100.617,61.299-159.722C494.767,124.342,387.657,17.232,256,17.232c-55.312,0-109.23,19.347-151.821,54.477
	c-3.669,3.027-9.101,2.508-12.13-1.164c-3.028-3.672-2.507-9.102,1.165-12.129C138.885,20.747,196.696,0,256,0
	c68.38,0,132.667,26.629,181.019,74.981s74.981,112.639,74.981,181.019c0,63.372-23.342,124.192-65.727,171.254
	C444.572,429.143,442.224,430.105,439.868,430.105z"/>
<path d="M256,512c-68.379,0-132.667-26.629-181.019-74.981S0.001,324.38,0.001,255.999c0-64.259,23.919-125.711,67.35-173.036
	c3.216-3.505,8.667-3.741,12.174-0.523c3.506,3.218,3.739,8.668,0.522,12.174C39.54,138.752,17.233,196.067,17.233,255.999
	c0,131.657,107.11,238.767,238.767,238.767c56.109,0,110.637-19.862,153.538-55.927c3.643-3.063,9.077-2.591,12.14,1.051
	c3.062,3.643,2.592,9.078-1.051,12.14C374.625,490.703,316.16,512,256,512z"/>
<path d="M289.368,432.092h-66.736c-4.76,0-8.616-3.858-8.616-8.616V197.677c0-4.758,3.857-8.616,8.616-8.616h66.736
	c4.76,0,8.616,3.858,8.616,8.616v225.798C297.984,428.234,294.127,432.092,289.368,432.092z M231.25,414.86h49.503V206.293H231.25
	V414.86z"/>
<path d="M256,174.561c-26.429,0-47.93-21.501-47.93-47.93s21.501-47.93,47.93-47.93s47.93,21.501,47.93,47.93
	C303.93,153.06,282.429,174.561,256,174.561z M256,95.933c-16.926,0-30.698,13.771-30.698,30.698s13.771,30.698,30.698,30.698
	s30.698-13.771,30.698-30.698S272.927,95.933,256,95.933z"/>
<g>
</g>
<g>
</g>
<g>
</g>
<g>
</g>
<g>
</g>
<g>
</g>
<g>
</g>
<g>
</g>
<g>
</g>
<g>
</g>
<g>
</g>
<g>
</g>
<g>
</g>
<g>
</g>
<g>
</g>
</svg>
