<?xml version="1.0" encoding="iso-8859-1"?>
<!-- Generator: Adobe Illustrator 19.0.0, SVG Export Plug-In . SVG Version: 6.00 Build 0)  -->
<svg version="1.1" id="Layer_1" xmlns="http://www.w3.org/2000/svg" xmlns:xlink="http://www.w3.org/1999/xlink" x="0px" y="0px"
	 viewBox="0 0 490 490" style="enable-background:new 0 0 490 490;" xml:space="preserve">
<g>
	<g id="XMLID_42_">
		<g>
			<path style="fill:#FFFFFF;" d="M480,170v310H10V170H480z M420,440v-50h-50v50H420z M420,350v-50h-50v50H420z M420,260v-50h-50v50
				H420z M320,440v-50h-50v50H320z M320,350v-50h-50v50H320z M320,260v-50h-50v50H320z M220,440v-50h-50v50H220z M220,350v-50h-50
				v50H220z M220,260v-50h-50v50H220z M120,440v-50H70v50H120z M120,350v-50H70v50H120z M120,260v-50H70v50H120z"/>
			<polygon style="fill:#F4661E;" points="480,60 480,170 10,170 10,60 75,60 75,90 135,90 135,60 215,60 215,90 275,90 275,60 
				355,60 355,90 415,90 415,60 			"/>
			<g>
				<rect x="370" y="300" style="fill:#FFD248;" width="50" height="50"/>
			</g>
			<g>
				<rect x="370" y="210" style="fill:#FFD248;" width="50" height="50"/>
			</g>
			<polygon style="fill:#CCCCCC;" points="415,60 415,90 355,90 355,60 355,10 415,10 			"/>
			<g>
				<rect x="270" y="390" style="fill:#B3B3B3;" width="50" height="50"/>
			</g>
			<g>
				<rect x="270" y="210" style="fill:#B3B3B3;" width="50" height="50"/>
			</g>
			<polygon style="fill:#CCCCCC;" points="275,60 275,90 215,90 215,60 215,10 275,10 			"/>
			<g>
				<rect x="170" y="390" style="fill:#B3B3B3;" width="50" height="50"/>
			</g>
			<g>
				<rect x="170" y="300" style="fill:#FFD248;" width="50" height="50"/>
			</g>
			<g>
				<rect x="170" y="210" style="fill:#B3B3B3;" width="50" height="50"/>
			</g>
			<polygon style="fill:#CCCCCC;" points="135,60 135,90 75,90 75,60 75,10 135,10 			"/>
			<g>
				<rect x="70" y="390" style="fill:#FFD248;" width="50" height="50"/>
			</g>
			<g>
				<rect x="70" y="300" style="fill:#FFD248;" width="50" height="50"/>
			</g>
			<g>
				<rect x="70" y="210" style="fill:#B3B3B3;" width="50" height="50"/>
			</g>
		</g>
		<g>
			<path d="M480,50h-55V10c0-5.523-4.477-10-10-10h-60c-5.523,0-10,4.477-10,10v40h-60V10c0-5.523-4.477-10-10-10h-60
				c-5.523,0-10,4.477-10,10v40h-60V10c0-5.523-4.477-10-10-10H75c-5.523,0-10,4.477-10,10v40H10C4.477,50,0,54.477,0,60v420
				c0,5.523,4.477,10,10,10h470c5.523,0,10-4.477,10-10V60C490,54.477,485.523,50,480,50z M365,20h40v60h-40V20z M225,20h40v60h-40
				V20z M85,20h40v60H85V20z M65,70v20c0,5.523,4.477,10,10,10h60c5.523,0,10-4.477,10-10V70h60v20c0,5.523,4.477,10,10,10h60
				c5.523,0,10-4.477,10-10V70h60v20c0,5.523,4.477,10,10,10h60c5.523,0,10-4.477,10-10V70h45v90H20V70H65z M20,470V180h450v290H20z
				"/>
			<g>
				<path d="M220,270h-50c-5.523,0-10-4.477-10-10v-50c0-5.523,4.477-10,10-10h50c5.523,0,10,4.477,10,10v50
					C230,265.523,225.523,270,220,270z M180,250h30v-30h-30V250z"/>
			</g>
			<g>
				<path d="M120,270H70c-5.523,0-10-4.477-10-10v-50c0-5.523,4.477-10,10-10h50c5.523,0,10,4.477,10,10v50
					C130,265.523,125.523,270,120,270z M80,250h30v-30H80V250z"/>
			</g>
			<g>
				<path d="M320,270h-50c-5.523,0-10-4.477-10-10v-50c0-5.523,4.477-10,10-10h50c5.523,0,10,4.477,10,10v50
					C330,265.523,325.523,270,320,270z M280,250h30v-30h-30V250z"/>
			</g>
			<g>
				<path d="M220,360h-50c-5.523,0-10-4.477-10-10v-50c0-5.523,4.477-10,10-10h50c5.523,0,10,4.477,10,10v50
					C230,355.523,225.523,360,220,360z M180,340h30v-30h-30V340z"/>
			</g>
			<g>
				<path d="M120,360H70c-5.523,0-10-4.477-10-10v-50c0-5.523,4.477-10,10-10h50c5.523,0,10,4.477,10,10v50
					C130,355.523,125.523,360,120,360z M80,340h30v-30H80V340z"/>
			</g>
			<g>
				<path d="M320,360h-50c-5.523,0-10-4.477-10-10v-50c0-5.523,4.477-10,10-10h50c5.523,0,10,4.477,10,10v50
					C330,355.523,325.523,360,320,360z M280,340h30v-30h-30V340z"/>
			</g>
			<g>
				<path d="M220,450h-50c-5.523,0-10-4.477-10-10v-50c0-5.523,4.477-10,10-10h50c5.523,0,10,4.477,10,10v50
					C230,445.523,225.523,450,220,450z M180,430h30v-30h-30V430z"/>
			</g>
			<g>
				<path d="M120,450H70c-5.523,0-10-4.477-10-10v-50c0-5.523,4.477-10,10-10h50c5.523,0,10,4.477,10,10v50
					C130,445.523,125.523,450,120,450z M80,430h30v-30H80V430z"/>
			</g>
			<g>
				<path d="M320,450h-50c-5.523,0-10-4.477-10-10v-50c0-5.523,4.477-10,10-10h50c5.523,0,10,4.477,10,10v50
					C330,445.523,325.523,450,320,450z M280,430h30v-30h-30V430z"/>
			</g>
			<g>
				<path d="M420,270h-50c-5.523,0-10-4.477-10-10v-50c0-5.523,4.477-10,10-10h50c5.523,0,10,4.477,10,10v50
					C430,265.523,425.523,270,420,270z M380,250h30v-30h-30V250z"/>
			</g>
			<g>
				<path d="M420,360h-50c-5.523,0-10-4.477-10-10v-50c0-5.523,4.477-10,10-10h50c5.523,0,10,4.477,10,10v50
					C430,355.523,425.523,360,420,360z M380,340h30v-30h-30V340z"/>
			</g>
			<g>
				<path d="M420,450h-50c-5.523,0-10-4.477-10-10v-50c0-5.523,4.477-10,10-10h50c5.523,0,10,4.477,10,10v50
					C430,445.523,425.523,450,420,450z M380,430h30v-30h-30V430z"/>
			</g>
		</g>
	</g>
</g>
<g>
</g>
<g>
</g>
<g>
</g>
<g>
</g>
<g>
</g>
<g>
</g>
<g>
</g>
<g>
</g>
<g>
</g>
<g>
</g>
<g>
</g>
<g>
</g>
<g>
</g>
<g>
</g>
<g>
</g>
</svg>
