<svg id="svg" version="1.1" xmlns="http://www.w3.org/2000/svg" xmlns:xlink="http://www.w3.org/1999/xlink" width="400" height="511.1111111111111" viewBox="0, 0, 400,511.1111111111111"><g id="svgg"><path id="path0" d="M0.000 255.400 L 0.000 510.800 200.000 510.800 L 400.000 510.800 400.000 255.400 L 400.000 0.000 200.000 0.000 L 0.000 0.000 0.000 255.400 M392.300 5.530 C 392.700 5.784,392.780 55.866,392.700 254.624 L 392.600 503.400 200.000 503.400 L 7.400 503.400 7.300 254.624 C 7.220 55.866,7.300 5.784,7.700 5.530 C 8.354 5.115,391.646 5.115,392.300 5.530 M26.667 24.666 C 26.520 24.813,26.400 128.313,26.400 254.667 L 26.400 484.400 200.000 484.400 L 373.601 484.400 373.500 254.500 L 373.400 24.600 200.167 24.500 C 104.889 24.444,26.814 24.519,26.667 24.666 M361.120 96.480 C 361.758 97.118,361.822 200.037,361.186 201.226 C 360.533 202.446,39.467 202.446,38.814 201.226 C 38.178 200.037,38.242 97.118,38.880 96.480 C 39.580 95.780,360.420 95.780,361.120 96.480 M359.152 220.543 C 359.483 220.940,359.576 235.551,359.501 275.243 L 359.400 329.400 199.442 329.500 C 81.521 329.575,39.341 329.483,38.942 329.152 C 38.189 328.527,38.128 221.232,38.880 220.480 C 39.636 219.724,358.525 219.787,359.152 220.543 M357.101 347.931 C 357.500 348.184,357.582 359.588,357.501 403.624 L 357.400 459.000 198.442 459.100 C 81.260 459.175,39.341 459.083,38.942 458.752 C 38.248 458.176,38.123 349.665,38.814 348.374 C 39.252 347.555,355.816 347.114,357.101 347.931 " stroke="none" fill="#fcfcfc" fill-rule="evenodd"></path><path id="path1" d="M57.647 238.943 C 57.318 239.340,57.223 249.626,57.298 277.043 L 57.400 314.600 199.000 314.600 L 340.600 314.600 340.702 276.825 C 340.783 246.869,340.700 238.984,340.302 238.731 C 339.334 238.117,58.158 238.328,57.647 238.943 M340.200 276.600 L 340.200 313.800 199.100 313.901 L 58.000 314.001 58.000 276.600 L 58.000 239.199 199.100 239.299 L 340.200 239.400 340.200 276.600 M57.784 366.900 C 57.679 367.175,57.640 383.780,57.697 403.800 L 57.800 440.200 198.200 440.200 L 338.600 440.200 338.702 403.625 C 338.783 374.629,338.700 366.984,338.302 366.731 C 337.395 366.155,58.004 366.323,57.784 366.900 " stroke="none" fill="#942c24" fill-rule="evenodd"></path><path id="path2" d="M103.900 5.500 C 156.755 5.556,243.245 5.556,296.100 5.500 C 348.955 5.444,305.710 5.398,200.000 5.398 C 94.290 5.398,51.045 5.444,103.900 5.500 M26.449 24.541 C 26.117 24.941,26.026 85.311,26.100 254.841 L 26.200 484.600 200.000 484.600 L 373.800 484.600 373.900 254.841 C 373.974 85.311,373.883 24.941,373.551 24.541 C 372.879 23.732,27.121 23.732,26.449 24.541 M373.500 254.500 L 373.601 484.400 200.000 484.400 L 26.400 484.400 26.400 254.667 C 26.400 128.313,26.520 24.813,26.667 24.666 C 26.814 24.519,104.889 24.444,200.167 24.500 L 373.400 24.600 373.500 254.500 M38.847 96.543 C 38.517 96.940,38.425 110.976,38.500 149.043 L 38.603 201.000 38.702 148.980 C 38.777 109.164,38.913 96.847,39.280 96.480 C 39.544 96.216,39.656 96.000,39.529 96.000 C 39.402 96.000,39.095 96.244,38.847 96.543 M360.698 96.439 C 361.089 96.940,361.219 108.290,361.300 149.039 L 361.403 201.000 361.502 148.949 C 361.595 99.785,361.561 96.868,360.900 96.349 C 360.280 95.863,360.257 95.873,360.698 96.439 M38.880 220.480 C 37.989 221.371,38.206 328.555,39.100 329.232 C 39.696 329.682,39.725 329.678,39.300 329.201 C 38.585 328.398,38.565 221.195,39.280 220.480 C 39.544 220.216,39.670 220.000,39.560 220.000 C 39.450 220.000,39.144 220.216,38.880 220.480 M358.700 220.399 C 359.353 221.131,359.442 329.013,358.790 329.337 C 358.565 329.449,358.610 329.494,358.890 329.437 C 359.812 329.250,359.823 221.067,358.901 220.369 C 358.305 219.918,358.274 219.922,358.700 220.399 M58.000 276.600 L 58.000 314.001 199.100 313.901 L 340.200 313.800 340.200 276.600 L 340.200 239.400 199.100 239.299 L 58.000 239.199 58.000 276.600 M39.062 347.900 C 38.894 348.171,144.826 348.170,299.400 347.899 C 331.080 347.843,285.506 347.753,198.124 347.699 C 110.742 347.644,39.164 347.735,39.062 347.900 M38.499 403.451 C 38.405 455.282,38.439 458.332,39.100 458.851 C 39.720 459.337,39.743 459.327,39.301 458.761 C 38.910 458.259,38.781 446.350,38.700 403.361 L 38.597 348.600 38.499 403.451 " stroke="none" fill="#c48434" fill-rule="evenodd"></path><path id="path3" d="M7.443 6.233 C 6.935 7.557,7.171 502.611,7.680 503.120 C 8.380 503.820,391.620 503.820,392.320 503.120 C 392.829 502.611,393.065 7.557,392.557 6.233 C 392.184 5.261,7.816 5.261,7.443 6.233 M391.900 254.500 L 392.001 502.800 200.000 502.800 L 8.000 502.800 8.000 254.667 C 8.000 118.193,8.120 6.413,8.267 6.266 C 8.414 6.119,94.769 6.044,200.167 6.100 L 391.800 6.200 391.900 254.500 M25.614 24.374 C 24.693 26.096,25.076 483.876,26.000 484.800 C 26.798 485.598,27.333 485.600,200.000 485.600 C 372.667 485.600,373.202 485.598,374.000 484.800 C 374.924 483.876,375.307 26.096,374.386 24.374 C 373.733 23.154,26.267 23.154,25.614 24.374 M373.551 24.541 C 373.883 24.941,373.974 85.311,373.900 254.841 L 373.800 484.600 200.000 484.600 L 26.200 484.600 26.100 254.841 C 26.026 85.311,26.117 24.941,26.449 24.541 C 27.121 23.732,372.879 23.732,373.551 24.541 M39.280 96.480 C 38.583 97.177,38.583 200.823,39.280 201.520 C 39.980 202.220,360.020 202.220,360.720 201.520 C 361.417 200.823,361.417 97.177,360.720 96.480 C 360.020 95.780,39.980 95.780,39.280 96.480 M360.400 149.000 L 360.400 201.200 200.000 201.200 L 39.600 201.200 39.600 149.000 L 39.600 96.800 200.000 96.800 L 360.400 96.800 360.400 149.000 M57.784 115.299 C 57.679 115.575,57.640 130.920,57.697 149.400 L 57.800 183.000 200.000 183.000 L 342.200 183.000 342.200 149.000 L 342.200 115.000 200.088 114.899 C 86.608 114.819,57.937 114.900,57.784 115.299 M39.280 220.480 C 38.583 221.177,38.583 328.423,39.280 329.120 C 39.789 329.629,357.244 329.865,358.567 329.357 C 359.402 329.037,359.553 221.313,358.720 220.480 C 358.020 219.780,39.980 219.780,39.280 220.480 M358.701 274.900 L 358.803 328.800 199.201 328.800 L 39.600 328.800 39.600 274.800 L 39.600 220.799 199.100 220.900 L 358.600 221.000 358.701 274.900 M39.067 348.267 C 38.545 348.789,38.756 458.196,39.280 458.720 C 39.980 459.420,356.420 459.420,357.120 458.720 C 357.629 458.211,357.862 349.949,357.357 348.633 C 357.104 347.972,39.726 347.607,39.067 348.267 M356.800 403.400 L 356.800 458.400 198.200 458.400 L 39.600 458.400 39.600 403.400 L 39.600 348.400 198.200 348.400 L 356.800 348.400 356.800 403.400 " stroke="none" fill="#2c6c74" fill-rule="evenodd"></path><path id="path4" d="M8.267 6.266 C 8.120 6.413,8.000 118.193,8.000 254.667 L 8.000 502.800 200.000 502.800 L 392.001 502.800 391.900 254.500 L 391.800 6.200 200.167 6.100 C 94.769 6.044,8.414 6.119,8.267 6.266 M374.386 24.374 C 375.307 26.096,374.924 483.876,374.000 484.800 C 373.202 485.598,372.667 485.600,200.000 485.600 C 27.333 485.600,26.798 485.598,26.000 484.800 C 25.076 483.876,24.693 26.096,25.614 24.374 C 26.267 23.154,373.733 23.154,374.386 24.374 M39.600 149.000 L 39.600 201.200 200.000 201.200 L 360.400 201.200 360.400 149.000 L 360.400 96.800 200.000 96.800 L 39.600 96.800 39.600 149.000 M342.200 149.000 L 342.200 183.000 200.000 183.000 L 57.800 183.000 57.697 149.400 C 57.640 130.920,57.679 115.575,57.784 115.299 C 57.937 114.900,86.608 114.819,200.088 114.899 L 342.200 115.000 342.200 149.000 M39.600 274.800 L 39.600 328.800 199.201 328.800 L 358.803 328.800 358.701 274.900 L 358.600 221.000 199.100 220.900 L 39.600 220.799 39.600 274.800 M340.302 238.731 C 340.700 238.984,340.783 246.869,340.702 276.825 L 340.600 314.600 199.000 314.600 L 57.400 314.600 57.298 277.043 C 57.223 249.626,57.318 239.340,57.647 238.943 C 58.158 238.328,339.334 238.117,340.302 238.731 M39.600 403.400 L 39.600 458.400 198.200 458.400 L 356.800 458.400 356.800 403.400 L 356.800 348.400 198.200 348.400 L 39.600 348.400 39.600 403.400 M338.302 366.731 C 338.700 366.984,338.783 374.629,338.702 403.625 L 338.600 440.200 198.200 440.200 L 57.800 440.200 57.697 403.800 C 57.640 383.780,57.679 367.175,57.784 366.900 C 58.004 366.323,337.395 366.155,338.302 366.731 " stroke="none" fill="#040404" fill-rule="evenodd"></path></g></svg>