<!DOCTYPE svg PUBLIC "-//W3C//DTD SVG 1.1//EN" "http://www.w3.org/Graphics/SVG/1.1/DTD/svg11.dtd">
<!-- Uploaded to: SVG Repo, www.svgrepo.com, Transformed by: SVG Repo Mixer Tools -->
<svg version="1.0" id="Layer_1" xmlns="http://www.w3.org/2000/svg" xmlns:xlink="http://www.w3.org/1999/xlink" width="800px" height="800px" viewBox="0 0 64 64" enable-background="new 0 0 64 64" xml:space="preserve" fill="#000000">
<g id="SVGRepo_bgCarrier" stroke-width="0"/>
<g id="SVGRepo_tracerCarrier" stroke-linecap="round" stroke-linejoin="round"/>
<g id="SVGRepo_iconCarrier"> <g> <path fill-rule="evenodd" clip-rule="evenodd" fill="#caf0fe" d="M48,54H12C6.478,54,2,49.523,2,44s4.478-10,10-10 c0.553,0,1-0.447,1-1c0-0.551-0.444-0.996-0.995-0.998h0.015C12.013,32.002,12.007,32,12,32c-0.771,0-1.521,0.08-2.251,0.219 C8.673,31.135,8,29.648,8,28c0-3.314,2.687-6,6-6c1.657,0,3.157,0.672,4.243,1.758c0,0,1.007,0.992,1.757,0.244 c0.75-0.75-0.343-1.658-0.343-1.658c-0.626-0.625-1.359-1.141-2.163-1.531c0.002,0,0.004,0,0.006,0.002 C20.275,14.451,26.614,10,34,10c8.72,0,15.988,6.199,17.644,14.432c0.004,0.002,0.007,0.002,0.011,0.004 C50.479,24.16,49.26,24,48,24c-0.553,0-1,0.447-1,1s0.447,1,1,1c7.732,0,14,6.268,14,14C62,47.73,55.732,54,48,54z"/> <g> <path fill-rule="evenodd" clip-rule="evenodd" fill="#394240" d="M53.765,25.088C52.351,15.426,44.054,8,34,8 c-8.263,0-15.353,5.012-18.402,12.16C15.081,20.055,14.548,20,14,20c-4.418,0-8,3.582-8,8c0,1.818,0.614,3.488,1.636,4.832 C3.169,34.578,0,38.914,0,44c0,6.627,5.373,12,12,12h36c8.837,0,16-7.162,16-16C64,33.197,59.749,27.402,53.765,25.088z M48,54H12 C6.478,54,2,49.523,2,44s4.478-10,10-10c0.553,0,1-0.447,1-1c0-0.551-0.444-0.996-0.995-0.998h0.015 C12.013,32.002,12.007,32,12,32c-0.771,0-1.521,0.08-2.251,0.219C8.673,31.135,8,29.648,8,28c0-3.314,2.687-6,6-6 c1.657,0,3.157,0.672,4.243,1.758c0,0,1.007,0.992,1.757,0.244c0.75-0.75-0.343-1.658-0.343-1.658 c-0.626-0.625-1.359-1.141-2.163-1.531c0.002,0,0.004,0,0.006,0.002C20.275,14.451,26.614,10,34,10 c8.72,0,15.988,6.199,17.644,14.432c0.004,0.002,0.007,0.002,0.011,0.004C50.479,24.16,49.26,24,48,24c-0.553,0-1,0.447-1,1 s0.447,1,1,1c7.732,0,14,6.268,14,14C62,47.73,55.732,54,48,54z"/> <path fill-rule="evenodd" clip-rule="evenodd" fill="#394240" d="M48,30c-0.553,0-1,0.447-1,1s0.447,1,1,1c4.418,0,8,3.582,8,8 c0,0.553,0.447,1,1,1s1-0.447,1-1C58,34.477,53.522,30,48,30z"/> <path fill-rule="evenodd" clip-rule="evenodd" fill="#394240" d="M18.828,35.281c-0.75,0.734,0.243,1.646,0.243,1.646 C20.881,38.738,22,41.238,22,44c0,0.553,0.447,1,1,1s1-0.447,1-1c0-3.314-1.344-6.314-3.515-8.486 C20.485,35.514,19.578,34.547,18.828,35.281z"/> </g> </g> </g>
</svg>