<?xml version="1.0" encoding="iso-8859-1"?>
<!-- Generator: Adobe Illustrator 19.0.0, SVG Export Plug-In . SVG Version: 6.00 Build 0)  -->
<svg version="1.1" id="Layer_1" xmlns="http://www.w3.org/2000/svg" xmlns:xlink="http://www.w3.org/1999/xlink" x="0px" y="0px"
	 viewBox="0 0 512 512" style="enable-background:new 0 0 512 512;" xml:space="preserve">
<path style="fill:#FFD782;" d="M503.671,256.001c0-136.785-110.886-247.67-247.672-247.67S8.329,119.216,8.329,256.001
	s110.886,247.671,247.671,247.671S503.671,392.786,503.671,256.001z"/>
<path style="fill:#515262;" d="M284.504,284.007v29.226c0,12.589-9.442,22.032-22.032,22.032c-11.69,0-22.032-9.442-22.032-22.032
	v-46.761c0-0.45,0.45-0.45,0.45-0.9c-0.45-0.45-0.45-0.45-0.45-0.9c0-11.691,10.342-22.032,22.032-22.032
	c28.326,0,51.257-22.481,51.257-50.358c0-28.326-22.931-50.358-51.257-50.358c-18.435,0-34.622,9.891-43.164,24.729
	c-6.294,10.791-19.784,14.388-30.575,8.094c-10.342-6.294-13.938-19.334-7.644-30.125c16.186-27.876,46.761-46.761,81.383-46.761
	c52.156,0,94.871,42.264,94.871,94.421C357.344,236.796,326.32,274.115,284.504,284.007z M284.504,382.475v8.094
	c0,12.589-9.442,22.032-22.032,22.032c-11.69,0-22.032-9.442-22.032-22.032v-8.094c0-12.14,10.342-22.032,22.032-22.032
	C275.063,360.443,284.504,370.335,284.504,382.475z"/>
<path style="opacity:0.1;enable-background:new    ;" d="M74.96,256.001c0-125.485,93.327-229.158,214.356-245.433
	C278.418,9.102,267.3,8.33,256.001,8.33C119.215,8.33,8.329,119.216,8.329,256.001s110.886,247.671,247.672,247.671
	c11.3,0,22.417-0.772,33.316-2.238C168.288,485.16,74.96,381.487,74.96,256.001z"/>
<path d="M412.833,64.146c2.793-3.656,2.093-8.882-1.561-11.675c-44.929-34.326-98.621-52.47-155.273-52.47
	c-68.379,0-132.667,26.629-181.019,74.98C26.629,123.334,0,187.621,0,256.001c0,68.463,26.686,132.807,75.143,181.178
	c1.626,1.622,3.755,2.434,5.885,2.434c2.133,0,4.268-0.815,5.895-2.444c3.249-3.256,3.245-8.53-0.01-11.779
	c-45.305-45.224-70.254-105.38-70.254-169.388c0-63.931,24.896-124.035,70.102-169.241c45.206-45.205,105.31-70.101,169.24-70.101
	c52.964,0,103.16,16.961,145.158,49.049C404.814,68.501,410.04,67.801,412.833,64.146z"/>
<path d="M425.455,75.187c-3.257,3.248-3.263,8.522-0.014,11.778c45.076,45.185,69.901,105.216,69.901,169.035
	c0,63.931-24.896,124.035-70.102,169.24c-45.206,45.206-105.31,70.102-169.24,70.102c-52.784,0-102.841-16.856-144.76-48.744
	c-3.66-2.785-8.886-2.074-11.672,1.586c-2.785,3.661-2.074,8.886,1.586,11.672c44.842,34.113,98.387,52.144,154.846,52.144
	c68.38,0,132.667-26.629,181.019-74.98C485.371,388.666,512,324.379,512,255.999c0-68.262-26.553-132.471-74.766-180.8
	C433.986,71.945,428.712,71.936,425.455,75.187z"/>
<path d="M262.474,352.114c-16.457,0-30.361,13.904-30.361,30.361v8.094c0,16.741,13.619,30.361,30.361,30.361
	c17.309,0,30.361-13.052,30.361-30.361v-8.094C292.833,365.451,279.498,352.114,262.474,352.114z M276.175,390.568
	c0,7.939-5.763,13.703-13.703,13.703c-7.556,0-13.703-6.147-13.703-13.703v-8.094c0-7.299,6.403-13.703,13.703-13.703
	c7.811,0,13.703,5.891,13.703,13.703V390.568z"/>
<path d="M292.833,290.381c43.209-13.136,72.839-52.576,72.839-98.098c0-56.657-46.296-102.75-103.2-102.75
	c-36.409,0-70.353,19.506-88.577,50.893c-8.459,14.501-3.842,32.702,10.508,41.437c0.044,0.027,0.089,0.053,0.134,0.08
	c4.746,2.769,10.114,4.232,15.521,4.232c10.962-0.001,20.848-5.729,26.468-15.364c7.301-12.679,21.074-20.556,35.947-20.556
	c24.073,0,42.928,18.461,42.928,42.029c0,23.176-19.258,42.029-42.928,42.029c-16.174,0-30.361,14.187-30.361,30.361
	c0,0.328,0.014,0.642,0.04,0.944c-0.028,0.302-0.04,0.589-0.04,0.855v46.761c0,16.741,13.619,30.361,30.361,30.361
	c17.309,0,30.361-13.052,30.361-30.361v-22.852H292.833z M282.588,275.901c-3.758,0.888-6.411,4.243-6.411,8.105v29.226
	c0,7.939-5.763,13.703-13.703,13.703c-7.556,0-13.703-6.147-13.703-13.703v-44.853c0.345-1.038,0.45-2.011,0.45-2.807
	c0-0.817-0.12-1.622-0.351-2.392c0.85-6.463,7.061-12.21,13.604-12.21c32.856,0,59.586-26.327,59.586-58.687
	c0-15.908-6.222-30.739-17.519-41.762c-11.184-10.914-26.124-16.924-42.068-16.924c-20.812,0-40.118,11.075-50.359,28.861
	c-2.578,4.419-7.085,7.057-12.057,7.059c-2.435,0-4.874-0.665-7.059-1.923c-6.577-4.048-8.604-12.105-4.705-18.788
	c15.262-26.285,43.686-42.614,74.18-42.614c47.719,0,86.542,38.621,86.542,86.092C349.015,232.264,321.699,266.649,282.588,275.901z
	"/>
<g>
</g>
<g>
</g>
<g>
</g>
<g>
</g>
<g>
</g>
<g>
</g>
<g>
</g>
<g>
</g>
<g>
</g>
<g>
</g>
<g>
</g>
<g>
</g>
<g>
</g>
<g>
</g>
<g>
</g>
</svg>
