<svg id="Layer_1"  viewBox="0 0 128 128"  xmlns="http://www.w3.org/2000/svg" data-name="Layer 1"><path d="m38.166 27.985h49.575v78.279h-49.575z" fill="#2487ff"/><path d="m30.167 19.985v88.03h7.999v-80.03h45.334v80.03h8v-88.03z" fill="#ff9711"/><path d="m113.206 106.265h-98.412a1.75 1.75 0 1 0 0 3.5h98.412a1.75 1.75 0 0 0 0-3.5z" fill="#2487ff"/><path d="m51.833 113.206 46-5.191v-88.03l-46-5.191z" fill="#ed8600"/><circle cx="61.125" cy="64" fill="#c3c7f4" r="3.458"/><g fill="#860000"><path d="m113.206 106.265h-13.623v-86.28a1.749 1.749 0 0 0 -1.554-1.738l-19.078-2.154a1.75 1.75 0 0 0 -.392 3.478l17.524 1.978v84.9l-42.5 4.8v-94.5l8.886 1a1.75 1.75 0 1 0 .392-3.478l-10.832-1.216a1.75 1.75 0 0 0 -1.946 1.739v3.441h-19.916a1.75 1.75 0 0 0 -1.75 1.75v55.265a1.75 1.75 0 0 0 3.5 0v-53.515h18.166v91.471a1.75 1.75 0 0 0 1.75 1.75 1.61 1.61 0 0 0 .2-.011l45.9-5.18h15.276a1.75 1.75 0 0 0 0-3.5z"/><path d="m44.5 106.265h-4.584v-76.53h4.084a1.75 1.75 0 0 0 0-3.5h-5.834a1.75 1.75 0 0 0 -1.75 1.75v78.28h-4.5v-18.765a1.75 1.75 0 0 0 -3.5 0v18.765h-13.622a1.75 1.75 0 1 0 0 3.5h29.706a1.75 1.75 0 0 0 0-3.5z"/><path d="m30.167 83.083a1.75 1.75 0 0 0 1.75-1.75v-.375a1.75 1.75 0 0 0 -3.5 0v.375a1.75 1.75 0 0 0 1.75 1.75z"/><path d="m69.779 18.58 1.153.13a1.644 1.644 0 0 0 .2.012 1.75 1.75 0 0 0 .194-3.489l-1.152-.13a1.75 1.75 0 1 0 -.393 3.477z"/><path d="m55.917 64a5.208 5.208 0 1 0 5.208-5.208 5.214 5.214 0 0 0 -5.208 5.208zm6.916 0a1.708 1.708 0 1 1 -1.708-1.708 1.71 1.71 0 0 1 1.708 1.708z"/></g></svg>