<?xml version="1.0" encoding="iso-8859-1"?>
<!-- Generator: Adobe Illustrator 16.0.0, SVG Export Plug-In . SVG Version: 6.00 Build 0)  -->
<!DOCTYPE svg PUBLIC "-//W3C//DTD SVG 1.1//EN" "http://www.w3.org/Graphics/SVG/1.1/DTD/svg11.dtd">
<svg version="1.1" id="Capa_1" xmlns="http://www.w3.org/2000/svg" xmlns:xlink="http://www.w3.org/1999/xlink" x="0px" y="0px"
	 width="974.9px" height="974.9px" viewBox="0 0 974.9 974.9" style="enable-background:new 0 0 974.9 974.9;" xml:space="preserve"
	>
<g>
	<path d="M974.572,292.3c0-16.6-13.399-30-30-30h-206.3c-16.6,0-30-13.4-30-30V30c0-16.6-13.4-30-30-30h-215.2
		c-24.899,0-45,20.1-45,45v156.8c0.4,0.4,0.9,0.8,1.3,1.3l175.101,175.1c14.3,14.3,21.899,33.3,21.8,52.7h0.1v303.2h313.101
		c24.899,0,45-20.101,45-45V292.3H974.572z"/>
	<path d="M795.072,4.5c-9.399-9.4-25.6-2.8-25.6,10.6v175.1c0,8.3,6.7,15,15,15h175.1c13.4,0,20.101-16.2,10.601-25.6L795.072,4.5z"
		/>
	<path d="M45.272,974.9L45.272,974.9h466.5l0,0c24.9,0,45-20.101,45-45v-195.8v-197c0-16.601-13.4-30-30-30h-108.7h-96.5
		c-16.6,0-30-13.4-30-30V431V270.8c0-16.6-13.4-30-30-30h-216.3c-24.9,0-45,20.1-45,36v644.1c0,9,1.4,17,4,24
		C11.373,964,27.072,974.9,45.272,974.9z"/>
	<path d="M366.673,445.9h51.3h123.8c9,0,14.9-7.3,15-15c0-3.7-1.3-7.5-4.4-10.601L418.072,285.9l-40.7-40.7
		c-3.1-3.1-6.8-4.4-10.5-4.4c-7.699,0-15.1,6-15.1,15v175.1l0,0C351.673,439.2,358.473,445.9,366.673,445.9z"/>
</g>
<g>
</g>
<g>
</g>
<g>
</g>
<g>
</g>
<g>
</g>
<g>
</g>
<g>
</g>
<g>
</g>
<g>
</g>
<g>
</g>
<g>
</g>
<g>
</g>
<g>
</g>
<g>
</g>
<g>
</g>
</svg>
