<?xml version="1.0" encoding="iso-8859-1"?>
<!-- Uploaded to: SVG Repo, www.svgrepo.com, Generator: SVG Repo Mixer Tools -->
<svg version="1.1" id="Layer_1" xmlns="http://www.w3.org/2000/svg" xmlns:xlink="http://www.w3.org/1999/xlink" 
	 viewBox="0 0 508 508" xml:space="preserve">
<circle style="fill:#FFD05B;" cx="254" cy="254" r="254"/>
<g>
	<path style="fill:#E6E9EE;" d="M254.4,250.8C254,251.2,254,251.2,254.4,250.8c-0.4,0-0.4,0-0.4,0H254.4z"/>
	<path style="fill:#E6E9EE;" d="M301.2,288.4c-1.2,7.2-2.4,14.8-4,22.8h-86.4c-1.6-8-2.8-15.6-4-22.8c10.8-34.4,47.2-37.2,47.2-37.2
		S290.4,254,301.2,288.4z"/>
</g>
<g>
	<path style="fill:#F9B54C;" d="M297.6,196.4c0,0,5.6,30.8-43.2,54.4H254c-48.8-23.6-43.2-54.4-43.2-54.4l0,0c0-0.4,0-0.8,0.4-1.2
		c12,14.8,27.2,24.4,43.2,24.4c16.4,0,31.2-9.6,43.2-24.4C297.6,195.6,297.6,196,297.6,196.4C297.6,196.8,297.6,196.4,297.6,196.4z"
		/>
	<path style="fill:#F9B54C;" d="M220,204.8l-8,4c-2-7.6-1.2-12.4-1.2-12.4l0,0c0-0.4,0-0.8,0.4-1.2C213.6,198.8,216.8,202,220,204.8
		z"/>
	<path style="fill:#F9B54C;" d="M297.6,196.4c0,0,0.8,4.8-1.2,12.4l-8-4c3.2-2.8,6.4-6,9.2-9.6C297.6,195.6,297.6,196,297.6,196.4
		C297.6,196.8,297.6,196.4,297.6,196.4z"/>
</g>
<g>
	<path style="fill:#F1543F;" d="M254.4,250.8C254,251.2,254,251.2,254.4,250.8c-0.4,0-0.4,0-0.4,0H254.4z"/>
	<path style="fill:#F1543F;" d="M271.2,255.6l-5.6,16.8h-23.2l-5.6-16.8c9.6-4,17.2-4.8,17.2-4.8S261.6,251.6,271.2,255.6z"/>
</g>
<polygon style="fill:#FF7058;" points="272.4,322 265.6,272.4 242.4,272.4 235.6,322 "/>
<g>
	<path style="fill:#324A5E;" d="M412,310.8H297.2c1.6-8,2.8-15.6,4-22.8c0.4,0.8,12.8-45.6,6-74l86.8,42L412,310.8z"/>
	<path style="fill:#324A5E;" d="M210.8,310.8H96l17.6-54.8l87.2-42c-6.8,28.4,6,75.2,6,74C208,295.6,209.2,303.2,210.8,310.8z"/>
</g>
<g>
	<path style="fill:#FFFFFF;" d="M297.6,196.4c0,0,5.6,30.8-43.6,54.8c0,0,36.4,2.8,47.2,37.2C301.6,289.6,321.6,214.8,297.6,196.4z"
		/>
	<path style="fill:#FFFFFF;" d="M210.4,196.4c0,0-5.6,30.8,43.6,54.8c0,0-36.4,2.8-47.2,37.2C206.4,289.6,186.4,214.8,210.4,196.4z"
		/>
</g>
<path style="fill:#FFD05B;" d="M309.2,161.6c-6,18-8,28-8.4,28.8l0,0c-12.8,17.2-29.2,29.2-47.2,29.2c-16.8,0-32.4-10.4-44.8-26.4
	c0.4,0.4,0.4,0.4,0.4,0.4c-26.8-32.8-8.4-93.2-8.4-93.2c13.2,15.2,56.4,16,56.4,16c-18.8-3.2-22-18-22-18
	c3.2,9.2,44.8,14.8,44.8,14.8C323.6,119.6,309.2,161.6,309.2,161.6z"/>
<path style="fill:#324A5E;" d="M228.8,37.2c0,0,58.8-23.6,88.4,30c32,56.8-8,118.4-16.4,123.6c0,0,2-10,8.4-28.8
	c0,0,14.4-42-28.8-48.4c0,0-42-5.6-44.8-14.8c0,0,3.2,15.2,22,18.4c0,0-42.8-1.2-56.4-16c0,0-18.4,60.4,8.4,93.2
	c0,0-46-37.2-40.8-94C168.8,99.6,166.4,21.2,228.8,37.2z"/>
<g>
	<rect x="63.2" y="310.8" style="fill:#FFFFFF;" width="381.2" height="54"/>
	<path style="fill:#FFFFFF;" d="M396,374.4l-0.8,13.6l-4.8,80c-39.6,25.2-86.4,40-136.4,40s-97.2-14.8-136.4-40l-4.8-80l-0.8-13.6
		H396z"/>
</g>
<polygon style="fill:#E6E9EE;" points="444.8,364.8 63.2,364.8 112.8,388 112,374.4 396,374.4 395.2,388 "/>
</svg>