<!DOCTYPE svg PUBLIC "-//W3C//DTD SVG 1.1//EN" "http://www.w3.org/Graphics/SVG/1.1/DTD/svg11.dtd">
<!-- Uploaded to: SVG Repo, www.svgrepo.com, Transformed by: SVG Repo Mixer Tools -->
<svg height="800px" width="800px" version="1.1" id="Layer_1" xmlns="http://www.w3.org/2000/svg" xmlns:xlink="http://www.w3.org/1999/xlink" viewBox="0 0 512 512" xml:space="preserve" fill="#000000" transform="rotate(0)">
<g id="SVGRepo_bgCarrier" stroke-width="0"/>
<g id="SVGRepo_tracerCarrier" stroke-linecap="round" stroke-linejoin="round"/>
<g id="SVGRepo_iconCarrier"> <polygon style="fill:#a8c6fe;" points="472.339,141.131 302.547,10.2 302.547,103.983 39.66,103.983 39.66,178.277 302.547,178.277 302.547,272.061 "/> <polygon style="fill:#FFE6B8;" points="39.66,370.871 209.453,501.801 209.453,408.017 472.339,408.017 472.339,333.723 209.453,333.723 209.453,239.941 "/> <g> <path style="fill:#000000;" d="M302.547,282.26c-1.533,0-3.072-0.345-4.499-1.046c-3.489-1.716-5.699-5.265-5.699-9.153v-83.585 H39.66c-5.632,0-10.199-4.566-10.199-10.199v-74.294c0-5.633,4.567-10.199,10.199-10.199h252.688V10.2 c0-3.888,2.21-7.437,5.699-9.153c3.488-1.717,7.648-1.297,10.729,1.076l169.792,130.931c2.504,1.931,3.972,4.914,3.972,8.077 c0,3.163-1.467,6.146-3.972,8.077l-169.793,130.93C306.957,281.54,304.759,282.26,302.547,282.26z M49.859,168.078h252.688 c5.632,0,10.199,4.566,10.199,10.199v73.04l142.891-110.186L312.747,30.945v73.039c0,5.633-4.567,10.199-10.199,10.199H49.859 V168.078z"/> <path style="fill:#000000;" d="M209.453,512c-2.213,0-4.409-0.72-6.229-2.122L33.432,378.948c-2.504-1.931-3.972-4.914-3.972-8.077 c0-3.163,1.467-6.146,3.972-8.077l169.792-130.93c3.079-2.375,7.241-2.791,10.729-1.076c3.489,1.715,5.699,5.265,5.699,9.153 v83.585H472.34c5.632,0,10.199,4.566,10.199,10.199v74.294c0,5.633-4.567,10.199-10.199,10.199H219.651v83.583 c0,3.888-2.21,7.437-5.699,9.153C212.525,511.656,210.984,512,209.453,512z M56.362,370.871l142.891,110.186v-73.039 c0-5.633,4.567-10.199,10.199-10.199h252.688v-53.896H209.451c-5.632,0-10.199-4.566-10.199-10.199v-73.04L56.362,370.871z"/> <path style="fill:#000000;" d="M174.89,442.435c-2.182,0-4.379-0.697-6.236-2.135l-2.288-1.771 c-4.454-3.447-5.27-9.854-1.823-14.308c3.449-4.455,9.858-5.269,14.308-1.823l2.288,1.771c4.454,3.447,5.27,9.854,1.823,14.308 C180.953,441.074,177.937,442.435,174.89,442.435z"/> <path style="fill:#000000;" d="M146.319,420.316c-2.182,0-4.379-0.697-6.237-2.135l-42.295-32.745 c-4.454-3.448-5.269-9.854-1.821-14.308c3.449-4.455,9.853-5.27,14.308-1.822l42.295,32.745c4.454,3.448,5.269,9.854,1.821,14.308 C152.381,418.955,149.366,420.316,146.319,420.316z"/> </g> </g>
</svg>