<!DOCTYPE svg PUBLIC "-//W3C//DTD SVG 1.1//EN" "http://www.w3.org/Graphics/SVG/1.1/DTD/svg11.dtd">
<!-- Uploaded to: SVG Repo, www.svgrepo.com, Transformed by: SVG Repo Mixer Tools -->
<svg version="1.0" id="Layer_1" xmlns="http://www.w3.org/2000/svg" xmlns:xlink="http://www.w3.org/1999/xlink" width="800px" height="800px" viewBox="0 0 64 64" enable-background="new 0 0 64 64" xml:space="preserve" fill="#000000">
<g id="SVGRepo_bgCarrier" stroke-width="0"/>
<g id="SVGRepo_tracerCarrier" stroke-linecap="round" stroke-linejoin="round"/>
<g id="SVGRepo_iconCarrier"> <g> <circle fill="#f78978" cx="32" cy="32" r="24"/> <g> <path fill="#394240" d="M32,0C14.328,0,0,14.328,0,32s14.328,32,32,32s32-14.328,32-32S49.672,0,32,0z M32,56 C18.746,56,8,45.254,8,32S18.746,8,32,8s24,10.746,24,24S45.254,56,32,56z"/> <path fill="#394240" d="M36,30.344V16c0-2.211-1.789-4-4-4s-4,1.789-4,4v16c0,0.523,0.105,1.039,0.309,1.527 c0.203,0.492,0.496,0.938,0.867,1.305l7.934,7.934c1.566,1.566,4.168,1.645,5.734,0.078c1.562-1.562,1.582-4.074,0.016-5.641 L36,30.344z"/> </g> </g> </g>
</svg>