<svg width="189" height="52" viewBox="0 0 189 52" fill="none" xmlns="http://www.w3.org/2000/svg">
<path d="M36 17V9L18 18V26L36 17Z" fill="#18327B" fill-opacity="0.8"/>
<path d="M36 30V22L18 31V39L36 30Z" fill="#18327B" fill-opacity="0.8"/>
<path d="M36 43V35L18 44V52L36 43Z" fill="#18327B" fill-opacity="0.8"/>
<path d="M0 17V9L18 18V26L0 17Z" fill="#18327B" fill-opacity="0.8"/>
<path d="M0 30V22L18 31V39L0 30Z" fill="#18327B" fill-opacity="0.8"/>
<path d="M0 43V35L18 44V52L0 43Z" fill="#18327B" fill-opacity="0.8"/>
<path d="M18 8V0L0 9V17L18 8Z" fill="#18327B" fill-opacity="0.8"/>
<path d="M18 21V13L0 22V30L18 21Z" fill="#18327B" fill-opacity="0.8"/>
<path d="M18 34V26L0 35V43L18 34Z" fill="#18327B" fill-opacity="0.8"/>
<path d="M18 8V0L36 9V17L18 8Z" fill="#18327B" fill-opacity="0.8"/>
<path d="M18 21V13L36 22V30L18 21Z" fill="#18327B" fill-opacity="0.8"/>
<path d="M18 34V26L36 35V43L18 34Z" fill="#18327B" fill-opacity="0.8"/>
<path d="M52.0115 27C51.647 27 51.3827 26.9162 51.2187 26.7485C51.0729 26.5809 51 26.3294 51 25.9941V9.03382C51 8.6799 51.0729 8.41912 51.2187 8.25147C51.3827 8.08382 51.647 8 52.0115 8H53.4603C53.8248 8 54.0891 8.08382 54.2531 8.25147C54.4171 8.41912 54.4991 8.6799 54.4991 9.03382V25.9941C54.4991 26.3294 54.4171 26.5809 54.2531 26.7485C54.1073 26.9162 53.8431 27 53.4603 27H52.0115ZM62.7003 27C62.4998 27 62.3449 26.9814 62.2355 26.9441C62.1444 26.9069 62.0442 26.823 61.9348 26.6926L55.3466 18.5897C55.1826 18.3848 55.0641 18.2078 54.9912 18.0588C54.9183 17.9098 54.8819 17.7142 54.8819 17.4721C54.8819 17.2299 54.9092 17.0436 54.9639 16.9132C55.0368 16.7828 55.1644 16.5966 55.3466 16.3544L61.7708 8.33529C61.8802 8.18627 61.9895 8.09314 62.0989 8.05588C62.2082 8.01863 62.3813 8 62.6183 8H65.1333C65.2609 8 65.3611 8.03725 65.434 8.11176C65.5069 8.18627 65.5433 8.27941 65.5433 8.39118C65.5433 8.5402 65.4887 8.67059 65.3793 8.78235L58.299 17.4721L65.5433 26.2176C65.6527 26.3294 65.7074 26.4598 65.7074 26.6088C65.7074 26.7206 65.6709 26.8137 65.598 26.8882C65.5251 26.9627 65.4249 27 65.2973 27H62.7003Z" fill="#0D3380"/>
<path d="M67.0159 27C66.7061 27 66.5512 26.8603 66.5512 26.5809C66.5512 26.4691 66.5785 26.348 66.6332 26.2176L73.8502 8.72647C73.9595 8.44706 74.078 8.26078 74.2056 8.16765C74.3331 8.05588 74.5154 8 74.7523 8H76.2558C76.511 8 76.6932 8.05588 76.8026 8.16765C76.9302 8.26078 77.0486 8.44706 77.158 8.72647L84.375 26.2176C84.4296 26.348 84.457 26.4691 84.457 26.5809C84.457 26.8603 84.3021 27 83.9922 27H81.6139C81.377 27 81.2039 26.9721 81.0945 26.9162C81.0034 26.8417 80.9123 26.702 80.8211 26.4971L79.2629 22.5853H71.7179L70.187 26.4971C70.0959 26.702 69.9956 26.8417 69.8863 26.9162C69.7952 26.9721 69.6312 27 69.3942 27H67.0159ZM78.3881 19.9868L75.4904 12.6662L72.5927 19.9868H78.3881Z" fill="#0D3380"/>
<path d="M87.4643 27C87.0998 27 86.8355 26.9162 86.6715 26.7485C86.5257 26.5809 86.4528 26.3294 86.4528 25.9941V9.03382C86.4528 8.6799 86.5257 8.41912 86.6715 8.25147C86.8355 8.08382 87.1089 8 87.4916 8H88.9678C89.2594 8 89.4781 8.03725 89.6239 8.11176C89.7879 8.18627 89.9155 8.33529 90.0066 8.55882L95.5287 21.5515L101.051 8.55882C101.142 8.33529 101.26 8.18627 101.406 8.11176C101.57 8.03725 101.798 8 102.09 8H103.566C103.949 8 104.213 8.08382 104.359 8.25147C104.523 8.41912 104.605 8.6799 104.605 9.03382V25.9941C104.605 26.3294 104.523 26.5809 104.359 26.7485C104.213 26.9162 103.958 27 103.593 27H102.39C102.026 27 101.762 26.9162 101.598 26.7485C101.434 26.5809 101.352 26.3294 101.352 25.9941V13.9515L96.6769 24.5971C96.5311 24.8951 96.3853 25.1093 96.2395 25.2397C96.0937 25.3701 95.8568 25.4353 95.5287 25.4353C95.2007 25.4353 94.9546 25.3701 94.7906 25.2397C94.6448 25.1093 94.5081 24.8951 94.3806 24.5971L89.7059 13.9515V25.9941C89.7059 26.3294 89.6239 26.5809 89.4599 26.7485C89.3141 26.9162 89.0498 27 88.6671 27H87.4643Z" fill="#0D3380"/>
<path d="M107.06 27C106.751 27 106.596 26.8603 106.596 26.5809C106.596 26.4691 106.623 26.348 106.678 26.2176L113.895 8.72647C114.004 8.44706 114.123 8.26078 114.25 8.16765C114.378 8.05588 114.56 8 114.797 8H116.3C116.556 8 116.738 8.05588 116.847 8.16765C116.975 8.26078 117.093 8.44706 117.203 8.72647L124.42 26.2176C124.474 26.348 124.502 26.4691 124.502 26.5809C124.502 26.8603 124.347 27 124.037 27H121.658C121.422 27 121.248 26.9721 121.139 26.9162C121.048 26.8417 120.957 26.702 120.866 26.4971L119.307 22.5853H111.762L110.232 26.4971C110.14 26.702 110.04 26.8417 109.931 26.9162C109.84 26.9721 109.676 27 109.439 27H107.06ZM118.433 19.9868L115.535 12.6662L112.637 19.9868H118.433Z" fill="#0D3380"/>
<path d="M129.46 27C129.096 27 128.832 26.9162 128.668 26.7485C128.504 26.5809 128.422 26.3294 128.422 25.9941V10.7382H123.638C123.273 10.7382 123.018 10.6637 122.872 10.5147C122.745 10.3657 122.681 10.1142 122.681 9.76029V9.00588C122.681 8.65196 122.745 8.40049 122.872 8.25147C123.018 8.08382 123.273 8 123.638 8H136.705C137.069 8 137.324 8.08382 137.47 8.25147C137.616 8.40049 137.689 8.65196 137.689 9.00588V9.76029C137.689 10.1142 137.616 10.3657 137.47 10.5147C137.324 10.6637 137.069 10.7382 136.705 10.7382H131.921V25.9941C131.921 26.3294 131.839 26.5809 131.675 26.7485C131.529 26.9162 131.265 27 130.882 27H129.46Z" fill="#0D3380"/>
<path d="M140.83 27C140.466 27 140.202 26.9162 140.038 26.7485C139.892 26.5809 139.819 26.3294 139.819 25.9941V9.03382C139.819 8.6799 139.892 8.41912 140.038 8.25147C140.202 8.08382 140.466 8 140.83 8H152.203C152.567 8 152.813 8.07451 152.941 8.22353C153.086 8.37255 153.159 8.62402 153.159 8.97794V9.73235C153.159 10.0863 153.086 10.3471 152.941 10.5147C152.813 10.6637 152.567 10.7382 152.203 10.7382H143.318V16.1588H149.77C150.134 16.1588 150.389 16.2333 150.535 16.3824C150.681 16.5314 150.754 16.7828 150.754 17.1368V17.8353C150.754 18.1892 150.681 18.45 150.535 18.6176C150.389 18.7667 150.134 18.8412 149.77 18.8412H143.318V24.2897H152.175C152.54 24.2897 152.795 24.3735 152.941 24.5412C153.086 24.6902 153.159 24.9417 153.159 25.2956V26.05C153.159 26.3853 153.086 26.6275 152.941 26.7765C152.795 26.9255 152.54 27 152.175 27H140.83Z" fill="#0D3380"/>
<path d="M156.581 27C156.217 27 155.952 26.9162 155.788 26.7485C155.643 26.5809 155.57 26.3294 155.57 25.9941V9.03382C155.57 8.6799 155.643 8.41912 155.788 8.25147C155.952 8.08382 156.217 8 156.581 8H163.716C165.83 8 167.434 8.50294 168.528 9.50882C169.639 10.5147 170.195 12.0049 170.195 13.9794C170.195 15.2833 169.894 16.401 169.293 17.3324C168.692 18.2451 167.817 18.9343 166.669 19.4L169.703 26.2735C169.758 26.3853 169.785 26.4877 169.785 26.5809C169.785 26.8603 169.621 27 169.293 27H167.051C166.814 27 166.641 26.9721 166.532 26.9162C166.423 26.8417 166.322 26.702 166.231 26.4971L163.47 19.875H159.069V25.9941C159.069 26.3294 158.987 26.5809 158.823 26.7485C158.677 26.9162 158.413 27 158.03 27H156.581ZM163.005 17.1926C164.281 17.1926 165.22 16.9412 165.821 16.4382C166.423 15.9353 166.723 15.1157 166.723 13.9794C166.723 12.8618 166.45 12.0422 165.903 11.5206C165.356 10.999 164.527 10.7382 163.415 10.7382H159.069V17.1926H163.005Z" fill="#0D3380"/>
<path d="M171.559 27C171.249 27 171.094 26.8603 171.094 26.5809C171.094 26.4691 171.122 26.348 171.176 26.2176L178.393 8.72647C178.503 8.44706 178.621 8.26078 178.749 8.16765C178.876 8.05588 179.058 8 179.295 8H180.799C181.054 8 181.236 8.05588 181.346 8.16765C181.473 8.26078 181.592 8.44706 181.701 8.72647L188.918 26.2176C188.973 26.348 189 26.4691 189 26.5809C189 26.8603 188.845 27 188.535 27H186.157C185.92 27 185.747 26.9721 185.638 26.9162C185.546 26.8417 185.455 26.702 185.364 26.4971L183.806 22.5853H176.261L174.73 26.4971C174.639 26.702 174.539 26.8417 174.429 26.9162C174.338 26.9721 174.174 27 173.937 27H171.559ZM182.931 19.9868L180.033 12.6662L177.136 19.9868H182.931Z" fill="#0D3380"/>
<path d="M51.3822 44.8099C51.1274 44.8099 51 44.6831 51 44.4296V36.5704C51 36.3169 51.1274 36.1901 51.3822 36.1901H54.7206C55.6804 36.1901 56.4024 36.4352 56.8866 36.9254C57.3708 37.4155 57.6129 38.1042 57.6129 38.9915C57.6129 39.8789 57.3708 40.5676 56.8866 41.0577C56.4024 41.5394 55.6762 41.7803 54.7078 41.7803H52.1595V44.4296C52.1595 44.5563 52.1298 44.6535 52.0703 44.7211C52.0108 44.7803 51.9131 44.8099 51.7772 44.8099H51.3822ZM54.7078 40.8549C55.3024 40.8549 55.7441 40.7028 56.0329 40.3986C56.3217 40.0859 56.4662 39.6169 56.4662 38.9915C56.4662 38.3577 56.3217 37.8887 56.0329 37.5845C55.7441 37.2718 55.3024 37.1155 54.7078 37.1155H52.1595V40.8549H54.7078Z" fill="#0D3380"/>
<path d="M59.1964 44.8099C58.9416 44.8099 58.8142 44.6831 58.8142 44.4296V36.5704C58.8142 36.3169 58.9416 36.1901 59.1964 36.1901H64.497C64.6329 36.1901 64.7263 36.2155 64.7773 36.2662C64.8367 36.3169 64.8665 36.4056 64.8665 36.5324V36.7479C64.8665 36.8831 64.8367 36.9803 64.7773 37.0394C64.7263 37.0901 64.6329 37.1155 64.497 37.1155H59.9737V40.031H63.3757C63.5116 40.031 63.6093 40.0606 63.6688 40.1197C63.7282 40.1704 63.7579 40.2592 63.7579 40.3859V40.5887C63.7579 40.7155 63.7282 40.8085 63.6688 40.8676C63.6093 40.9268 63.5116 40.9563 63.3757 40.9563H59.9737V43.8845H64.497C64.6329 43.8845 64.7263 43.9141 64.7773 43.9732C64.8367 44.0239 64.8665 44.1169 64.8665 44.2521V44.4676C64.8665 44.5944 64.8367 44.6831 64.7773 44.7338C64.7263 44.7845 64.6329 44.8099 64.497 44.8099H59.1964Z" fill="#0D3380"/>
<path d="M66.5751 44.8099C66.3203 44.8099 66.1929 44.6831 66.1929 44.4296V36.5704C66.1929 36.3169 66.3203 36.1901 66.5751 36.1901H69.9899C70.8733 36.1901 71.5614 36.4099 72.054 36.8493C72.5552 37.2887 72.8058 37.9352 72.8058 38.7887C72.8058 39.3803 72.6529 39.8873 72.3471 40.3099C72.0413 40.7239 71.6038 41.0282 71.0347 41.2225L72.5255 44.5437C72.5425 44.5944 72.551 44.6324 72.551 44.6577C72.551 44.7592 72.4872 44.8099 72.3598 44.8099H71.6845C71.5911 44.8099 71.5189 44.7972 71.4679 44.7718C71.4254 44.738 71.3872 44.6746 71.3532 44.5817L69.9389 41.362H67.3524V44.4296C67.3524 44.5563 67.3226 44.6535 67.2632 44.7211C67.2037 44.7803 67.106 44.8099 66.9701 44.8099H66.5751ZM69.6459 40.4493C70.3424 40.4493 70.8521 40.3225 71.1749 40.069C71.4976 39.807 71.659 39.3803 71.659 38.7887C71.659 38.2056 71.5146 37.7831 71.2258 37.5211C70.9455 37.2507 70.5038 37.1155 69.9007 37.1155H67.3524V40.4493H69.6459Z" fill="#0D3380"/>
<path d="M74.6382 44.8099C74.3834 44.8099 74.2559 44.6831 74.2559 44.4296V36.5704C74.2559 36.3169 74.3834 36.1901 74.6382 36.1901H79.9387C80.0746 36.1901 80.1681 36.2155 80.219 36.2662C80.2785 36.3169 80.3082 36.4056 80.3082 36.5324V36.7479C80.3082 36.8831 80.2785 36.9803 80.219 37.0394C80.1681 37.0901 80.0746 37.1155 79.9387 37.1155H75.4154V40.031H78.8174C78.9534 40.031 79.051 40.0563 79.1105 40.107C79.17 40.1577 79.1997 40.2465 79.1997 40.3732V40.5887C79.1997 40.7239 79.17 40.8211 79.1105 40.8803C79.051 40.931 78.9534 40.9563 78.8174 40.9563H75.4154V44.4296C75.4154 44.5563 75.3857 44.6535 75.3262 44.7211C75.2668 44.7803 75.1691 44.8099 75.0332 44.8099H74.6382Z" fill="#0D3380"/>
<path d="M84.9642 45C83.6051 45 82.5518 44.607 81.8043 43.8211C81.0568 43.0268 80.683 41.9197 80.683 40.5C80.683 39.0803 81.0568 37.9775 81.8043 37.1915C82.5518 36.3972 83.6051 36 84.9642 36C86.3148 36 87.3639 36.3972 88.1114 37.1915C88.8589 37.9775 89.2326 39.0803 89.2326 40.5C89.2326 41.9197 88.8589 43.0268 88.1114 43.8211C87.3639 44.607 86.3148 45 84.9642 45ZM84.9642 44.1127C85.958 44.1127 86.7268 43.8042 87.2704 43.1873C87.8225 42.5704 88.0986 41.6746 88.0986 40.5C88.0986 39.3254 87.8225 38.4296 87.2704 37.8127C86.7268 37.1958 85.958 36.8873 84.9642 36.8873C83.9618 36.8873 83.1846 37.1958 82.6325 37.8127C82.0888 38.4296 81.817 39.3254 81.817 40.5C81.817 41.6746 82.0888 42.5704 82.6325 43.1873C83.1846 43.8042 83.9618 44.1127 84.9642 44.1127Z" fill="#0D3380"/>
<path d="M91.0629 44.8099C90.8081 44.8099 90.6807 44.6831 90.6807 44.4296V36.5704C90.6807 36.3169 90.8081 36.1901 91.0629 36.1901H94.4777C95.3611 36.1901 96.0492 36.4099 96.5418 36.8493C97.043 37.2887 97.2936 37.9352 97.2936 38.7887C97.2936 39.3803 97.1407 39.8873 96.8349 40.3099C96.5291 40.7239 96.0916 41.0282 95.5225 41.2225L97.0133 44.5437C97.0303 44.5944 97.0388 44.6324 97.0388 44.6577C97.0388 44.7592 96.975 44.8099 96.8476 44.8099H96.1723C96.0789 44.8099 96.0067 44.7972 95.9557 44.7718C95.9132 44.738 95.875 44.6746 95.841 44.5817L94.4267 41.362H91.8402V44.4296C91.8402 44.5563 91.8104 44.6535 91.751 44.7211C91.6915 44.7803 91.5938 44.8099 91.4579 44.8099H91.0629ZM94.1337 40.4493C94.8302 40.4493 95.3399 40.3225 95.6627 40.069C95.9854 39.807 96.1468 39.3803 96.1468 38.7887C96.1468 38.2056 96.0024 37.7831 95.7136 37.5211C95.4333 37.2507 94.9916 37.1155 94.3885 37.1155H91.8402V40.4493H94.1337Z" fill="#0D3380"/>
<path d="M99.126 44.8099C98.8712 44.8099 98.7437 44.6831 98.7437 44.4296V36.5704C98.7437 36.3169 98.8754 36.1901 99.1387 36.1901H99.5719C99.6824 36.1901 99.7673 36.2028 99.8268 36.2282C99.8862 36.2535 99.9372 36.3127 99.9797 36.4056L102.91 43.0225L105.854 36.4056C105.896 36.3127 105.947 36.2535 106.006 36.2282C106.066 36.2028 106.151 36.1901 106.261 36.1901H106.695C106.83 36.1901 106.928 36.2239 106.988 36.2915C107.047 36.3507 107.077 36.4437 107.077 36.5704V44.4296C107.077 44.5563 107.047 44.6535 106.988 44.7211C106.928 44.7803 106.83 44.8099 106.695 44.8099H106.363C106.227 44.8099 106.13 44.7803 106.07 44.7211C106.011 44.6535 105.981 44.5563 105.981 44.4296V38.307L103.318 44.1761C103.276 44.269 103.225 44.3408 103.165 44.3915C103.106 44.4338 103.021 44.4549 102.91 44.4549C102.8 44.4549 102.715 44.4338 102.655 44.3915C102.596 44.3408 102.545 44.269 102.503 44.1761L99.8523 38.307V44.4296C99.8523 44.6831 99.7206 44.8099 99.4573 44.8099H99.126Z" fill="#0D3380"/>
<path d="M108.411 44.8099C108.283 44.8099 108.22 44.7549 108.22 44.6451C108.22 44.6282 108.228 44.5859 108.245 44.5183L111.673 36.4563C111.724 36.3465 111.766 36.2746 111.8 36.2408C111.842 36.207 111.91 36.1901 112.004 36.1901H112.475C112.569 36.1901 112.632 36.207 112.666 36.2408C112.709 36.2746 112.756 36.3465 112.807 36.4563L116.234 44.5183C116.251 44.5859 116.26 44.6282 116.26 44.6451C116.26 44.7549 116.196 44.8099 116.068 44.8099H115.393C115.291 44.8099 115.219 44.7972 115.177 44.7718C115.143 44.7465 115.109 44.6958 115.075 44.6197L114.208 42.5535H110.271L109.405 44.6197C109.371 44.6958 109.332 44.7465 109.29 44.7718C109.256 44.7972 109.188 44.8099 109.086 44.8099H108.411ZM113.864 41.6535L112.233 37.7493L110.602 41.6535H113.864Z" fill="#0D3380"/>
<path d="M118.102 44.8099C117.847 44.8099 117.719 44.6831 117.719 44.4296V36.5704C117.719 36.3169 117.851 36.1901 118.114 36.1901H118.497C118.598 36.1901 118.675 36.207 118.726 36.2408C118.785 36.2662 118.845 36.3211 118.904 36.4056L123.733 43.0099V36.5704C123.733 36.3169 123.861 36.1901 124.116 36.1901H124.511C124.646 36.1901 124.744 36.2239 124.804 36.2915C124.863 36.3507 124.893 36.4437 124.893 36.5704V44.4296C124.893 44.5563 124.863 44.6535 124.804 44.7211C124.744 44.7803 124.646 44.8099 124.511 44.8099H124.116C124.022 44.8099 123.946 44.7972 123.886 44.7718C123.835 44.738 123.78 44.6789 123.721 44.5944L118.879 38.0028V44.4296C118.879 44.5563 118.849 44.6535 118.79 44.7211C118.73 44.7803 118.632 44.8099 118.497 44.8099H118.102Z" fill="#0D3380"/>
<path d="M130.77 45C129.36 45 128.269 44.607 127.496 43.8211C126.731 43.0352 126.349 41.9282 126.349 40.5C126.349 39.0718 126.731 37.9648 127.496 37.1789C128.26 36.393 129.347 36 130.757 36C131.301 36 131.811 36.0549 132.286 36.1648C132.762 36.2746 133.161 36.4352 133.484 36.6465C133.552 36.6887 133.586 36.7352 133.586 36.7859C133.586 36.8197 133.573 36.862 133.548 36.9127L133.28 37.3563C133.246 37.4239 133.208 37.4577 133.166 37.4577C133.123 37.4577 133.081 37.4408 133.038 37.407C132.783 37.2549 132.469 37.1324 132.095 37.0394C131.721 36.938 131.305 36.8873 130.847 36.8873C129.802 36.8873 128.978 37.1873 128.375 37.7873C127.78 38.3789 127.483 39.2831 127.483 40.5C127.483 41.7338 127.789 42.6465 128.4 43.238C129.012 43.8211 129.836 44.1127 130.872 44.1127C131.382 44.1127 131.823 44.0704 132.197 43.9859C132.571 43.893 132.906 43.7577 133.204 43.5803C133.246 43.5465 133.293 43.5296 133.344 43.5296C133.386 43.5296 133.425 43.5592 133.459 43.6183L133.739 44.1C133.764 44.1338 133.777 44.1676 133.777 44.2014C133.777 44.2268 133.764 44.2521 133.739 44.2775C133.722 44.2944 133.692 44.3155 133.65 44.3408C132.987 44.7803 132.027 45 130.77 45Z" fill="#0D3380"/>
<path d="M135.596 44.8099C135.342 44.8099 135.214 44.6831 135.214 44.4296V36.5704C135.214 36.3169 135.342 36.1901 135.596 36.1901H140.897C141.033 36.1901 141.126 36.2155 141.177 36.2662C141.237 36.3169 141.266 36.4056 141.266 36.5324V36.7479C141.266 36.8831 141.237 36.9803 141.177 37.0394C141.126 37.0901 141.033 37.1155 140.897 37.1155H136.374V40.031H139.776C139.912 40.031 140.009 40.0606 140.069 40.1197C140.128 40.1704 140.158 40.2592 140.158 40.3859V40.5887C140.158 40.7155 140.128 40.8085 140.069 40.8676C140.009 40.9268 139.912 40.9563 139.776 40.9563H136.374V43.8845H140.897C141.033 43.8845 141.126 43.9141 141.177 43.9732C141.237 44.0239 141.266 44.1169 141.266 44.2521V44.4676C141.266 44.5944 141.237 44.6831 141.177 44.7338C141.126 44.7845 141.033 44.8099 140.897 44.8099H135.596Z" fill="#0D3380"/>
<path d="M152.11 45C150.7 45 149.608 44.607 148.835 43.8211C148.071 43.0352 147.688 41.9282 147.688 40.5C147.688 39.0718 148.071 37.9648 148.835 37.1789C149.6 36.393 150.687 36 152.097 36C152.641 36 153.15 36.0549 153.626 36.1648C154.102 36.2746 154.501 36.4352 154.824 36.6465C154.892 36.6887 154.926 36.7352 154.926 36.7859C154.926 36.8197 154.913 36.862 154.887 36.9127L154.62 37.3563C154.586 37.4239 154.548 37.4577 154.505 37.4577C154.463 37.4577 154.42 37.4408 154.378 37.407C154.123 37.2549 153.809 37.1324 153.435 37.0394C153.061 36.938 152.645 36.8873 152.186 36.8873C151.141 36.8873 150.318 37.1873 149.714 37.7873C149.12 38.3789 148.822 39.2831 148.822 40.5C148.822 41.7338 149.128 42.6465 149.74 43.238C150.351 43.8211 151.175 44.1127 152.212 44.1127C152.721 44.1127 153.163 44.0704 153.537 43.9859C153.911 43.893 154.246 43.7577 154.543 43.5803C154.586 43.5465 154.633 43.5296 154.684 43.5296C154.726 43.5296 154.764 43.5592 154.798 43.6183L155.079 44.1C155.104 44.1338 155.117 44.1676 155.117 44.2014C155.117 44.2268 155.104 44.2521 155.079 44.2775C155.062 44.2944 155.032 44.3155 154.989 44.3408C154.327 44.7803 153.367 45 152.11 45Z" fill="#0D3380"/>
<path d="M156.936 44.8099C156.681 44.8099 156.554 44.6831 156.554 44.4296V36.5704C156.554 36.3169 156.681 36.1901 156.936 36.1901H157.331C157.467 36.1901 157.565 36.2239 157.624 36.2915C157.684 36.3507 157.713 36.4437 157.713 36.5704V43.8845H161.931C162.067 43.8845 162.16 43.9141 162.211 43.9732C162.271 44.0239 162.3 44.1169 162.3 44.2521V44.4676C162.3 44.5944 162.271 44.6831 162.211 44.7338C162.16 44.7845 162.067 44.8099 161.931 44.8099H156.936Z" fill="#0D3380"/>
<path d="M166.951 45C165.592 45 164.539 44.607 163.791 43.8211C163.044 43.0268 162.67 41.9197 162.67 40.5C162.67 39.0803 163.044 37.9775 163.791 37.1915C164.539 36.3972 165.592 36 166.951 36C168.302 36 169.351 36.3972 170.098 37.1915C170.846 37.9775 171.219 39.0803 171.219 40.5C171.219 41.9197 170.846 43.0268 170.098 43.8211C169.351 44.607 168.302 45 166.951 45ZM166.951 44.1127C167.945 44.1127 168.714 43.8042 169.257 43.1873C169.809 42.5704 170.085 41.6746 170.085 40.5C170.085 39.3254 169.809 38.4296 169.257 37.8127C168.714 37.1958 167.945 36.8873 166.951 36.8873C165.949 36.8873 165.171 37.1958 164.619 37.8127C164.076 38.4296 163.804 39.3254 163.804 40.5C163.804 41.6746 164.076 42.5704 164.619 43.1873C165.171 43.8042 165.949 44.1127 166.951 44.1127Z" fill="#0D3380"/>
<path d="M176.375 45C175.636 45 174.982 44.8732 174.413 44.6197C173.844 44.3577 173.398 43.9859 173.075 43.5042C172.761 43.0141 172.604 42.4437 172.604 41.793V36.5704C172.604 36.3169 172.731 36.1901 172.986 36.1901H173.381C173.517 36.1901 173.615 36.2239 173.674 36.2915C173.734 36.3507 173.763 36.4437 173.763 36.5704V41.8437C173.763 42.5451 173.993 43.0986 174.451 43.5042C174.91 43.9099 175.551 44.1127 176.375 44.1127C177.199 44.1127 177.841 43.9099 178.299 43.5042C178.758 43.0986 178.987 42.5451 178.987 41.8437V36.5704C178.987 36.4437 179.017 36.3507 179.077 36.2915C179.136 36.2239 179.234 36.1901 179.37 36.1901H179.752C180.015 36.1901 180.147 36.3169 180.147 36.5704V41.793C180.147 42.4437 179.985 43.0141 179.663 43.5042C179.348 43.9859 178.907 44.3577 178.338 44.6197C177.768 44.8732 177.114 45 176.375 45Z" fill="#0D3380"/>
<path d="M182.171 44.8099C181.916 44.8099 181.788 44.6831 181.788 44.4296V36.5704C181.788 36.3169 181.916 36.1901 182.171 36.1901H184.591C186.01 36.1901 187.097 36.5324 187.853 37.2169C188.618 37.893 189 38.9873 189 40.5C189 42.0127 188.618 43.1113 187.853 43.7958C187.097 44.4718 186.01 44.8099 184.591 44.8099H182.171ZM184.681 43.8845C185.725 43.8845 186.515 43.6268 187.051 43.1113C187.594 42.5958 187.866 41.7254 187.866 40.5C187.866 39.2746 187.594 38.4042 187.051 37.8887C186.515 37.3732 185.725 37.1155 184.681 37.1155H182.948V43.8845H184.681Z" fill="#0D3380"/>
</svg>
